<svg id="svg" version="1.1" xmlns="http://www.w3.org/2000/svg" xmlns:xlink="http://www.w3.org/1999/xlink" width="400" height="400" viewBox="0, 0, 400,400"><g id="svgg"><path id="path0" d="M0.000 200.000 L 0.000 400.000 200.000 400.000 L 400.000 400.000 400.000 200.000 L 400.000 0.000 200.000 0.000 L 0.000 0.000 0.000 200.000 M213.986 77.144 C 233.902 79.998,250.659 87.645,265.828 100.800 C 271.400 105.634,271.177 105.180,269.034 107.323 L 267.228 109.129 265.352 107.390 C 230.162 74.764,171.015 74.244,136.489 106.257 L 133.545 108.986 131.595 107.325 L 129.645 105.664 132.985 102.460 C 153.461 82.814,184.925 72.981,213.986 77.144 M130.739 111.407 C 134.546 114.919,134.456 114.337,131.711 117.671 C 124.040 126.990,117.823 139.867,115.033 152.216 C 114.520 154.485,114.048 156.370,113.984 156.404 C 113.920 156.438,112.657 156.771,111.178 157.142 C 109.699 157.514,107.458 158.313,106.198 158.918 C 104.937 159.523,103.907 159.829,103.908 159.599 C 103.917 157.191,105.925 147.947,107.605 142.578 C 110.843 132.230,117.829 119.370,124.694 111.120 C 127.263 108.033,127.070 108.024,130.739 111.407 M276.707 112.207 C 282.584 119.519,288.946 131.022,291.993 139.844 C 294.872 148.177,297.335 160.213,296.048 159.655 C 293.087 158.372,289.342 157.064,288.010 156.846 C 286.379 156.581,286.368 156.568,285.926 154.364 C 283.240 140.971,278.010 129.644,269.213 118.164 L 266.519 114.648 269.685 111.639 C 273.610 107.909,273.228 107.878,276.707 112.207 M115.691 160.776 C 115.620 161.402,115.307 162.311,114.997 162.795 C 114.408 163.714,115.636 171.219,117.027 175.195 C 117.546 176.680,117.530 176.787,116.704 177.344 C 114.863 178.584,109.120 183.523,107.905 184.911 L 106.630 186.368 105.854 184.558 C 104.290 180.910,102.492 172.218,102.263 167.207 L 102.148 164.687 104.688 163.198 C 107.654 161.458,110.809 160.201,113.281 159.775 C 115.639 159.368,115.841 159.452,115.691 160.776 M290.265 160.557 C 294.766 162.073,298.438 164.429,298.435 165.799 C 298.429 169.089,296.648 178.448,295.248 182.554 C 293.849 186.656,294.081 186.591,291.115 183.702 C 289.664 182.290,287.229 180.192,285.704 179.041 L 282.931 176.948 283.813 173.905 C 285.635 167.614,286.142 164.123,285.413 162.889 C 283.598 159.817,285.441 158.932,290.265 160.557 M142.694 167.325 C 146.120 168.756,147.192 171.209,155.779 197.266 C 165.433 226.559,166.176 228.913,168.925 238.867 C 172.845 253.060,172.358 254.713,163.352 257.765 C 160.000 258.901,159.189 258.737,156.909 256.457 C 149.819 249.366,135.901 206.754,131.836 179.688 C 130.624 171.619,130.961 170.638,135.627 168.648 C 140.300 166.654,140.845 166.552,142.694 167.325 M264.560 168.440 C 269.428 170.342,269.996 172.170,268.544 181.250 C 263.775 211.065,248.603 254.488,241.710 258.053 C 239.300 259.299,231.616 256.304,229.916 253.455 C 227.883 250.049,231.369 236.927,245.261 195.703 C 255.582 165.076,255.662 164.962,264.560 168.440 M127.359 182.356 C 128.506 191.896,132.529 209.571,136.131 220.898 C 138.155 227.262,136.804 225.800,134.538 219.175 C 127.854 199.626,122.916 174.281,125.446 172.503 L 126.367 171.856 126.644 175.283 C 126.796 177.169,127.118 180.351,127.359 182.356 M275.416 172.882 C 276.794 174.543,274.219 190.607,270.286 204.883 C 268.500 211.365,264.451 223.685,263.843 224.487 C 262.935 225.685,263.138 224.226,264.442 220.192 C 269.298 205.165,273.828 183.320,273.828 174.927 C 273.828 172.150,274.302 171.540,275.416 172.882 M122.958 176.271 C 123.425 187.028,127.302 201.715,135.357 223.242 C 142.052 241.134,146.518 251.334,150.893 258.726 C 152.579 261.576,152.551 261.802,150.434 262.364 C 149.166 262.701,148.728 262.062,144.771 254.102 C 129.532 223.438,115.848 173.794,122.646 173.829 C 122.759 173.830,122.899 174.928,122.958 176.271 M279.489 174.997 C 283.839 179.803,264.083 241.827,251.906 261.595 C 251.187 262.763,251.064 262.813,249.886 262.421 C 247.939 261.771,247.902 261.569,249.336 259.328 C 252.837 253.852,256.682 245.162,264.436 225.195 C 272.380 204.743,277.734 185.004,277.734 176.174 C 277.734 174.014,278.273 173.652,279.489 174.997 M118.750 179.258 C 118.750 194.165,134.410 242.055,145.437 260.869 C 146.228 262.219,146.875 263.387,146.875 263.466 C 146.875 264.458,136.341 265.265,133.658 264.480 C 123.150 261.401,106.711 223.635,104.478 197.439 C 104.064 192.594,106.920 187.852,114.664 180.521 C 118.600 176.796,118.750 176.749,118.750 179.258 M287.988 182.684 C 293.407 188.195,296.596 193.262,296.265 195.836 C 293.502 217.365,286.085 239.635,276.504 255.166 C 270.987 264.109,267.151 266.146,258.594 264.677 C 253.029 263.722,253.330 263.962,254.710 261.597 C 266.113 242.059,279.827 200.797,281.839 179.973 L 282.095 177.329 283.528 178.467 C 284.316 179.093,286.323 180.991,287.988 182.684 M134.160 243.297 C 133.558 243.829,128.171 245.268,124.902 245.769 C 121.300 246.322,121.367 245.934,123.983 251.161 C 129.776 262.732,132.501 264.778,140.644 263.673 C 144.973 263.086,144.922 263.251,142.266 258.476 C 140.999 256.198,138.837 251.778,137.462 248.654 C 134.924 242.889,134.817 242.716,134.160 243.297 M264.850 244.661 C 262.677 249.574,260.079 254.980,258.084 258.741 C 256.844 261.079,255.880 263.042,255.943 263.104 C 256.342 263.503,263.041 264.076,264.851 263.866 C 269.290 263.351,271.510 260.983,276.163 251.801 C 279.074 246.056,279.099 246.363,275.663 245.816 C 274.094 245.566,271.182 244.838,269.190 244.198 L 265.569 243.034 264.850 244.661 M261.621 266.429 C 264.375 266.959,264.362 266.930,263.245 270.237 C 262.658 271.976,262.235 272.656,261.741 272.656 C 261.208 272.656,260.546 274.059,258.792 278.899 C 255.811 287.125,255.113 287.942,252.719 286.003 L 251.835 285.288 254.185 278.297 C 255.963 273.006,256.437 271.148,256.133 270.661 C 255.453 269.572,257.298 265.512,258.358 265.764 C 258.810 265.872,260.278 266.171,261.621 266.429 " stroke="none" fill="#040c0c" fill-rule="evenodd"></path><path id="path1" d="M193.672 76.586 C 169.982 78.179,146.153 88.630,131.463 103.868 L 129.918 105.471 131.628 107.214 L 133.339 108.957 136.494 106.118 C 170.356 75.639,225.127 74.413,260.742 103.337 C 262.676 104.907,264.774 106.733,265.405 107.393 C 266.892 108.949,267.505 108.907,269.242 107.128 C 270.906 105.423,271.005 105.655,267.052 102.015 C 247.445 83.958,220.887 74.754,193.672 76.586 M125.135 110.840 C 115.998 121.668,109.326 135.006,105.841 149.414 C 104.502 154.950,103.834 159.890,104.463 159.609 C 107.873 158.089,111.048 156.948,112.376 156.766 L 114.028 156.539 114.462 154.344 C 117.066 141.181,123.503 127.468,131.780 117.448 C 133.886 114.898,134.354 114.063,133.676 114.063 C 133.506 114.063,132.056 112.838,130.453 111.341 C 126.944 108.064,127.438 108.111,125.135 110.840 M269.819 111.656 L 266.695 114.717 269.354 118.199 C 277.756 129.199,283.560 141.530,285.734 152.997 L 286.413 156.579 288.269 156.834 C 289.290 156.975,291.510 157.692,293.203 158.428 C 294.896 159.164,296.343 159.766,296.419 159.766 C 296.652 159.766,296.066 155.867,295.245 151.953 C 292.180 137.336,285.151 122.546,275.955 111.369 C 273.165 107.977,273.592 107.957,269.819 111.656 M110.742 160.502 C 109.668 160.892,107.339 161.942,105.566 162.836 L 102.344 164.462 102.345 166.704 C 102.348 170.970,104.370 180.935,106.027 184.853 L 106.643 186.308 108.285 184.527 C 109.188 183.547,111.341 181.587,113.069 180.171 C 114.797 178.755,116.434 177.398,116.707 177.155 C 117.105 176.801,116.977 175.753,116.058 171.853 C 114.405 164.836,114.314 164.029,115.016 162.681 C 116.540 159.759,114.982 158.964,110.742 160.502 M284.766 160.336 C 284.766 160.709,285.058 161.631,285.415 162.384 C 286.188 164.012,285.816 167.227,284.184 173.032 C 282.953 177.409,282.859 176.914,285.222 178.516 C 286.332 179.268,288.717 181.298,290.522 183.028 L 293.805 186.172 294.392 184.785 C 295.768 181.533,297.683 172.812,298.233 167.289 L 298.476 164.851 296.643 163.689 C 292.110 160.814,284.766 158.740,284.766 160.336 M125.020 173.009 C 123.831 175.231,126.887 192.757,131.056 207.617 C 132.831 213.947,136.295 224.322,136.793 224.805 C 137.232 225.229,137.204 225.080,136.176 221.484 C 131.584 205.431,129.854 198.268,128.156 188.281 C 127.517 184.521,126.871 179.380,126.721 176.855 C 126.444 172.203,125.995 171.188,125.020 173.009 M273.828 175.318 C 273.828 183.989,269.098 206.664,264.280 221.094 C 263.236 224.221,263.035 225.403,263.652 224.785 C 264.191 224.246,268.399 211.323,270.261 204.492 C 274.310 189.628,276.766 174.188,275.313 172.734 C 274.181 171.603,273.828 172.217,273.828 175.318 M121.582 174.698 C 120.541 175.810,120.523 176.296,121.298 182.304 C 123.212 197.126,131.585 224.675,139.901 243.510 C 140.766 245.468,141.744 247.686,142.076 248.438 C 144.274 253.429,149.118 262.500,149.585 262.500 C 151.897 262.500,152.585 261.480,151.434 259.759 C 148.802 255.824,143.710 245.147,140.166 236.133 C 128.632 206.795,124.551 192.803,122.754 176.431 L 122.461 173.760 121.582 174.698 M277.976 175.850 C 277.863 176.779,277.670 178.594,277.547 179.883 C 277.205 183.459,275.154 193.096,273.455 199.110 C 268.373 217.091,255.473 249.590,249.689 258.984 C 248.009 261.712,248.199 262.454,250.586 262.481 C 251.479 262.492,255.658 254.785,259.578 245.898 C 271.697 218.422,282.936 177.302,279.032 174.723 C 278.210 174.180,278.175 174.217,277.976 175.850 M113.760 181.499 C 105.584 189.797,104.002 192.776,104.689 198.581 C 107.709 224.101,122.284 259.048,131.837 263.672 C 134.463 264.943,139.311 265.189,143.476 264.263 C 146.857 263.511,146.937 263.369,145.386 260.916 C 135.667 245.555,120.343 199.646,118.907 181.588 C 118.507 176.570,118.614 176.572,113.760 181.499 M281.887 180.582 C 280.107 200.326,264.862 245.682,254.475 262.137 L 253.543 263.613 255.580 264.078 C 265.326 266.305,270.204 264.565,275.170 257.090 C 284.801 242.597,294.450 214.723,295.962 197.027 C 296.334 192.674,293.650 188.170,286.655 181.409 C 282.289 177.188,282.194 177.172,281.887 180.582 M136.682 246.777 C 137.605 248.872,139.755 253.295,141.461 256.606 C 144.914 263.309,144.916 263.172,141.365 263.686 C 132.560 264.959,129.926 263.112,124.121 251.600 C 121.278 245.961,121.176 246.357,125.684 245.535 C 127.778 245.152,130.635 244.440,132.031 243.952 C 133.428 243.464,134.668 243.043,134.788 243.016 C 134.908 242.990,135.760 244.683,136.682 246.777 M269.379 244.135 C 271.381 244.776,274.255 245.505,275.767 245.754 C 279.073 246.300,279.055 246.203,276.711 250.887 C 271.150 261.995,268.981 264.067,262.917 264.060 C 260.824 264.058,256.305 263.466,255.992 263.153 C 255.909 263.070,257.298 260.120,259.080 256.599 C 260.862 253.077,263.020 248.572,263.875 246.588 C 264.730 244.604,265.499 242.978,265.585 242.975 C 265.670 242.971,267.377 243.493,269.379 244.135 M256.643 268.049 C 256.024 269.746,255.913 270.493,256.225 270.869 C 256.541 271.249,256.094 273.020,254.484 277.780 C 252.085 284.871,251.983 285.924,253.634 286.501 C 255.440 287.133,255.917 286.435,258.453 279.453 C 260.339 274.260,261.011 272.827,261.605 272.736 C 262.150 272.652,262.594 271.915,263.212 270.064 C 264.203 267.097,264.170 266.984,262.216 266.641 C 261.405 266.499,260.009 266.238,259.113 266.062 L 257.484 265.741 256.643 268.049 " stroke="none" fill="#f6f6f7" fill-rule="evenodd"></path><path id="path2" d="M196.391 76.448 C 196.877 76.542,197.580 76.538,197.954 76.440 C 198.327 76.342,197.930 76.266,197.070 76.270 C 196.211 76.275,195.905 76.355,196.391 76.448 M203.613 76.441 C 203.989 76.539,204.604 76.539,204.980 76.441 C 205.356 76.343,205.049 76.263,204.297 76.263 C 203.545 76.263,203.237 76.343,203.613 76.441 M194.629 82.691 C 195.005 82.789,195.620 82.789,195.996 82.691 C 196.372 82.593,196.064 82.513,195.313 82.513 C 194.561 82.513,194.253 82.593,194.629 82.691 M204.785 82.691 C 205.161 82.789,205.776 82.789,206.152 82.691 C 206.528 82.593,206.221 82.513,205.469 82.513 C 204.717 82.513,204.409 82.593,204.785 82.691 M267.188 102.075 C 267.188 102.143,267.759 102.714,268.457 103.345 L 269.727 104.492 268.579 103.223 C 267.510 102.039,267.188 101.774,267.188 102.075 M139.648 167.076 C 136.949 167.729,132.344 170.112,131.818 171.128 C 128.575 177.400,142.854 230.642,153.209 250.890 C 156.724 257.764,158.935 259.262,163.352 257.765 C 172.358 254.713,172.845 253.060,168.925 238.867 C 166.176 228.913,165.433 226.559,155.779 197.266 C 148.735 175.890,147.004 171.322,145.147 169.207 C 143.450 167.274,141.675 166.586,139.648 167.076 M258.543 167.184 C 254.360 168.410,251.624 175.178,237.694 218.750 C 227.113 251.846,226.997 253.533,235.072 256.969 C 240.202 259.152,241.574 258.981,244.279 255.820 C 253.609 244.920,272.965 176.452,268.368 170.608 C 267.033 168.911,260.464 166.621,258.543 167.184 M261.816 265.124 C 262.407 265.213,263.374 265.213,263.965 265.124 C 264.556 265.034,264.072 264.961,262.891 264.961 C 261.709 264.961,261.226 265.034,261.816 265.124 " stroke="none" fill="#06aad9" fill-rule="evenodd"></path></g></svg>