<svg id="svg" version="1.1" xmlns="http://www.w3.org/2000/svg" xmlns:xlink="http://www.w3.org/1999/xlink" width="400" height="400" viewBox="0, 0, 400,400"><g id="svgg"><path id="path0" d="M245.990 95.388 C 246.230 95.677,246.791 96.009,247.236 96.125 C 247.870 96.291,247.951 96.223,247.610 95.812 C 247.370 95.523,246.809 95.191,246.364 95.075 C 245.730 94.909,245.649 94.977,245.990 95.388 M103.672 160.539 C 103.950 160.836,104.497 160.995,104.888 160.893 C 106.038 160.592,105.704 160.000,104.384 160.000 C 103.382 160.000,103.257 160.095,103.672 160.539 M292.800 160.485 C 292.800 160.927,293.904 160.879,294.185 160.424 C 294.313 160.218,294.053 160.076,293.609 160.109 C 293.164 160.143,292.800 160.312,292.800 160.485 M134.800 167.516 C 132.245 168.783,130.953 169.653,130.857 170.172 C 130.778 170.596,130.463 171.194,130.157 171.500 C 129.396 172.261,129.418 176.406,130.187 177.424 C 130.582 177.946,130.779 179.208,130.787 181.276 C 130.794 182.968,130.980 184.464,131.200 184.600 C 131.420 184.736,131.600 185.805,131.600 186.975 C 131.600 188.378,131.804 189.272,132.200 189.600 C 132.596 189.928,132.800 190.822,132.800 192.225 C 132.800 193.395,132.980 194.464,133.200 194.600 C 133.420 194.736,133.600 195.522,133.600 196.347 C 133.600 197.172,133.864 198.196,134.187 198.624 C 134.510 199.051,134.780 200.064,134.787 200.876 C 134.794 201.688,134.980 202.464,135.200 202.600 C 135.420 202.736,135.600 203.522,135.600 204.347 C 135.600 205.172,135.864 206.196,136.187 206.624 C 136.510 207.051,136.780 207.837,136.787 208.372 C 136.802 209.518,137.454 211.743,138.240 213.332 C 138.548 213.955,138.800 215.070,138.800 215.809 C 138.800 216.548,138.980 217.264,139.200 217.400 C 139.420 217.536,139.600 218.104,139.600 218.662 C 139.600 219.220,139.852 220.154,140.159 220.738 C 140.466 221.322,140.932 222.610,141.194 223.600 C 141.456 224.590,141.903 225.940,142.187 226.600 C 142.471 227.260,142.921 228.610,143.187 229.600 C 143.453 230.590,143.903 231.940,144.187 232.600 C 144.471 233.260,144.937 234.610,145.222 235.600 C 145.506 236.590,146.004 237.940,146.327 238.600 C 146.650 239.260,147.069 240.113,147.257 240.495 C 147.446 240.877,147.600 241.456,147.600 241.782 C 147.600 242.108,147.951 243.056,148.380 243.888 C 148.808 244.719,149.348 245.850,149.579 246.400 C 149.809 246.950,150.164 247.670,150.366 248.000 C 150.568 248.330,151.023 249.230,151.378 250.000 C 151.732 250.770,152.181 251.670,152.375 252.000 C 152.569 252.330,152.993 253.204,153.316 253.943 C 153.640 254.682,154.758 256.167,155.803 257.243 L 157.701 259.200 161.027 259.200 C 162.856 259.200,164.464 259.020,164.600 258.800 C 164.736 258.580,165.191 258.400,165.611 258.400 C 167.300 258.400,170.389 256.390,171.697 254.439 C 172.601 253.093,172.713 245.827,171.850 244.589 C 171.547 244.155,171.199 243.080,171.076 242.200 C 170.604 238.828,170.104 236.744,169.660 236.300 C 169.407 236.047,169.200 235.347,169.200 234.744 C 169.200 234.141,169.020 233.536,168.800 233.400 C 168.580 233.264,168.400 232.568,168.400 231.853 C 168.400 231.138,168.136 230.204,167.813 229.776 C 167.490 229.349,167.220 228.653,167.213 228.228 C 167.198 227.366,166.571 225.216,165.803 223.400 C 165.524 222.740,165.079 221.390,164.813 220.400 C 164.547 219.410,164.097 218.060,163.813 217.400 C 163.529 216.740,163.081 215.390,162.818 214.400 C 162.555 213.410,162.083 212.090,161.770 211.468 C 161.456 210.845,161.200 209.910,161.200 209.391 C 161.200 208.872,161.020 208.336,160.800 208.200 C 160.580 208.064,160.400 207.548,160.400 207.053 C 160.400 206.558,160.136 205.804,159.813 205.376 C 159.490 204.949,159.220 204.116,159.213 203.524 C 159.206 202.932,159.020 202.336,158.800 202.200 C 158.580 202.064,158.400 201.436,158.400 200.805 C 158.400 200.174,158.130 199.387,157.800 199.057 C 157.470 198.727,157.197 198.039,157.194 197.529 C 157.189 196.652,156.400 193.965,155.629 192.200 C 155.437 191.760,154.975 190.365,154.603 189.100 C 154.230 187.835,153.762 186.800,153.563 186.800 C 153.363 186.800,153.200 186.271,153.200 185.624 C 153.200 184.977,153.020 184.336,152.800 184.200 C 152.580 184.064,152.400 183.586,152.400 183.138 C 152.400 182.690,152.148 181.846,151.841 181.262 C 151.534 180.678,151.067 179.390,150.804 178.400 C 150.541 177.410,149.907 175.700,149.394 174.600 C 148.881 173.500,148.365 172.146,148.246 171.591 C 148.128 171.037,146.906 169.462,145.531 168.091 C 142.185 164.755,140.544 164.667,134.800 167.516 M256.645 166.495 C 255.789 166.957,255.003 167.665,254.898 168.068 C 254.793 168.471,254.574 168.800,254.413 168.800 C 254.045 168.800,250.801 174.971,250.796 175.680 C 250.794 175.966,250.350 177.100,249.809 178.200 C 249.268 179.300,248.814 180.560,248.800 181.000 C 248.786 181.440,248.510 182.149,248.187 182.576 C 247.864 183.004,247.600 183.758,247.600 184.253 C 247.600 184.748,247.420 185.264,247.200 185.400 C 246.980 185.536,246.800 186.155,246.800 186.775 C 246.800 187.395,246.530 188.126,246.200 188.400 C 245.870 188.674,245.600 189.405,245.600 190.025 C 245.600 190.645,245.420 191.264,245.200 191.400 C 244.980 191.536,244.800 192.155,244.800 192.775 C 244.800 193.395,244.530 194.126,244.200 194.400 C 243.870 194.674,243.600 195.405,243.600 196.025 C 243.600 196.645,243.420 197.264,243.200 197.400 C 242.980 197.536,242.800 198.155,242.800 198.775 C 242.800 199.395,242.530 200.126,242.200 200.400 C 241.870 200.674,241.600 201.405,241.600 202.025 C 241.600 202.645,241.420 203.264,241.200 203.400 C 240.980 203.536,240.794 204.132,240.787 204.724 C 240.780 205.316,240.510 206.149,240.187 206.576 C 239.864 207.004,239.600 207.758,239.600 208.253 C 239.600 208.748,239.420 209.264,239.200 209.400 C 238.980 209.536,238.794 210.132,238.787 210.724 C 238.780 211.316,238.510 212.149,238.187 212.576 C 237.864 213.004,237.600 213.758,237.600 214.253 C 237.600 214.748,237.420 215.264,237.200 215.400 C 236.980 215.536,236.800 216.072,236.800 216.591 C 236.800 217.110,236.548 218.045,236.240 218.668 C 235.477 220.211,234.800 222.480,234.800 223.496 C 234.800 223.958,234.544 224.845,234.230 225.468 C 233.917 226.090,233.449 227.410,233.191 228.400 C 232.933 229.390,232.527 230.560,232.288 231.000 C 232.049 231.440,231.699 232.610,231.509 233.600 C 231.319 234.590,231.060 235.940,230.932 236.600 C 230.804 237.260,230.512 238.035,230.283 238.321 C 229.797 238.930,229.218 241.683,228.923 244.793 C 228.809 245.999,228.464 247.344,228.158 247.782 C 227.428 248.823,227.444 251.241,228.187 252.224 C 228.510 252.651,228.780 253.278,228.787 253.619 C 228.883 258.255,243.649 261.377,245.042 257.056 C 245.174 256.647,245.641 255.899,246.079 255.395 C 247.149 254.165,252.400 243.673,252.400 242.766 C 252.400 242.371,252.580 241.936,252.800 241.800 C 253.020 241.664,253.200 241.225,253.200 240.825 C 253.200 240.425,253.470 239.874,253.800 239.600 C 254.130 239.326,254.400 238.595,254.400 237.975 C 254.400 237.355,254.580 236.736,254.800 236.600 C 255.020 236.464,255.200 235.834,255.200 235.200 C 255.200 234.566,255.383 233.934,255.606 233.796 C 256.181 233.441,257.200 230.876,257.200 229.784 C 257.200 229.280,257.390 228.803,257.621 228.726 C 258.103 228.566,258.797 226.187,259.083 223.717 C 259.190 222.791,259.530 221.824,259.839 221.568 C 260.148 221.312,260.400 220.595,260.400 219.975 C 260.400 219.355,260.580 218.736,260.800 218.600 C 261.020 218.464,261.206 217.868,261.213 217.276 C 261.220 216.684,261.490 215.851,261.813 215.424 C 262.136 214.996,262.400 214.062,262.400 213.347 C 262.400 212.632,262.580 211.936,262.800 211.800 C 263.020 211.664,263.200 211.011,263.200 210.348 C 263.200 209.685,263.470 208.873,263.800 208.543 C 264.130 208.213,264.400 207.246,264.400 206.395 C 264.400 205.544,264.580 204.736,264.800 204.600 C 265.020 204.464,265.206 203.688,265.213 202.876 C 265.220 202.064,265.490 201.051,265.813 200.624 C 266.136 200.196,266.400 199.172,266.400 198.347 C 266.400 197.522,266.580 196.736,266.800 196.600 C 267.020 196.464,267.200 195.568,267.200 194.610 C 267.200 193.651,267.395 192.802,267.633 192.722 C 268.094 192.569,268.730 189.069,269.069 184.813 C 269.183 183.391,269.529 181.866,269.838 181.424 C 270.245 180.843,270.400 179.293,270.400 175.794 L 270.400 170.967 268.700 169.382 C 266.658 167.479,265.515 166.804,264.305 166.787 C 263.807 166.780,263.051 166.510,262.624 166.187 C 261.509 165.344,258.485 165.499,256.645 166.495 M262.386 223.017 C 261.988 223.497,261.981 223.741,262.354 224.114 C 262.727 224.487,262.916 224.461,263.204 223.997 C 263.435 223.624,263.428 223.350,263.185 223.266 C 262.970 223.192,262.897 222.967,263.021 222.766 C 263.389 222.171,262.941 222.348,262.386 223.017 M133.000 243.630 C 132.359 243.936,132.434 243.966,133.378 243.779 C 134.296 243.597,134.726 243.750,135.327 244.473 L 136.098 245.400 135.501 244.400 C 134.829 243.274,134.169 243.070,133.000 243.630 M265.280 243.680 C 265.016 243.944,264.805 244.349,264.812 244.580 C 264.819 244.811,265.017 244.668,265.253 244.263 C 265.590 243.682,265.990 243.574,267.141 243.754 C 268.195 243.918,268.378 243.881,267.800 243.619 C 266.665 243.105,265.835 243.125,265.280 243.680 M273.800 245.581 C 274.568 245.929,276.710 246.156,276.367 245.853 C 276.275 245.772,275.480 245.596,274.600 245.462 C 273.485 245.293,273.242 245.329,273.800 245.581 M136.028 245.800 C 136.028 246.020,136.286 246.650,136.600 247.200 C 136.914 247.750,137.172 248.020,137.172 247.800 C 137.172 247.580,136.914 246.950,136.600 246.400 C 136.286 245.850,136.028 245.580,136.028 245.800 M262.778 248.658 C 262.557 249.239,262.264 249.897,262.126 250.119 C 261.989 250.342,262.066 250.406,262.299 250.263 C 262.739 249.990,263.700 247.600,263.369 247.600 C 263.265 247.600,262.999 248.076,262.778 248.658 M277.265 249.017 C 276.595 250.488,276.723 250.802,277.447 249.465 C 277.786 248.840,277.988 248.254,277.896 248.163 C 277.805 248.071,277.521 248.456,277.265 249.017 M122.800 248.949 C 122.800 249.381,124.389 252.400,124.616 252.400 C 124.726 252.400,124.430 251.635,123.959 250.700 C 123.032 248.861,122.800 248.511,122.800 248.949 M261.265 251.817 C 260.595 253.288,260.723 253.602,261.447 252.265 C 261.786 251.640,261.988 251.054,261.896 250.963 C 261.805 250.871,261.521 251.256,261.265 251.817 M275.000 253.600 C 274.659 254.260,274.469 254.800,274.579 254.800 C 274.689 254.800,275.059 254.260,275.400 253.600 C 275.741 252.940,275.931 252.400,275.821 252.400 C 275.711 252.400,275.341 252.940,275.000 253.600 M259.580 255.239 C 259.120 256.140,258.813 256.946,258.897 257.030 C 258.981 257.114,259.441 256.376,259.919 255.391 C 261.009 253.147,260.715 253.015,259.580 255.239 M126.861 256.823 C 127.362 257.715,128.017 258.648,128.315 258.896 C 128.613 259.143,128.278 258.413,127.569 257.273 C 126.041 254.814,125.560 254.509,126.861 256.823 M272.177 258.459 C 271.309 259.812,269.898 261.432,269.040 262.059 C 268.161 262.702,267.755 263.200,268.109 263.200 C 268.858 263.200,271.917 259.797,273.166 257.575 C 274.503 255.195,273.954 255.686,272.177 258.459 M130.660 261.500 C 131.591 262.435,132.589 263.195,132.877 263.188 C 133.165 263.181,133.040 262.978,132.600 262.736 C 132.160 262.494,131.162 261.734,130.383 261.048 C 129.428 260.206,129.518 260.353,130.660 261.500 M143.044 260.200 C 143.208 260.640,143.356 261.478,143.371 262.062 C 143.387 262.646,143.535 263.040,143.700 262.938 C 144.179 262.642,144.023 261.483,143.358 260.400 C 142.979 259.782,142.859 259.706,143.044 260.200 M256.790 261.026 C 255.996 263.116,256.841 263.993,259.600 263.940 L 261.400 263.906 259.445 263.578 C 256.943 263.159,256.584 262.795,257.129 261.230 C 257.646 259.749,257.345 259.568,256.790 261.026 M133.949 263.725 C 134.367 264.239,135.082 264.386,136.949 264.341 L 139.400 264.282 137.200 264.008 C 135.990 263.858,134.640 263.580,134.200 263.392 C 133.487 263.087,133.460 263.124,133.949 263.725 M140.600 263.600 L 139.400 263.905 140.600 263.947 C 141.260 263.969,142.070 263.813,142.400 263.600 C 143.143 263.120,142.487 263.120,140.600 263.600 M266.057 263.556 C 265.728 263.765,265.671 263.996,265.912 264.146 C 266.131 264.281,266.532 264.123,266.804 263.796 C 267.343 263.145,266.920 263.009,266.057 263.556 M137.705 266.287 C 138.314 266.379,139.214 266.377,139.705 266.282 C 140.197 266.187,139.700 266.111,138.600 266.114 C 137.500 266.117,137.097 266.195,137.705 266.287 " stroke="none" fill="#04abdb" fill-rule="evenodd"></path><path id="path1" d="M129.600 244.823 C 127.290 245.455,124.927 245.979,124.349 245.986 C 122.218 246.014,122.149 246.885,123.976 250.701 C 129.526 262.295,133.590 265.273,141.395 263.460 C 142.713 263.154,143.434 262.766,143.521 262.316 C 143.629 261.752,137.353 248.169,135.427 244.800 C 134.673 243.482,134.496 243.482,129.600 244.823 M261.390 252.287 C 255.675 264.055,255.651 263.281,261.753 263.834 C 268.014 264.402,270.795 262.024,276.021 251.637 C 278.299 247.109,278.319 246.313,276.160 246.069 C 275.522 245.998,273.110 245.414,270.800 244.772 C 268.490 244.130,266.377 243.604,266.104 243.603 C 265.831 243.601,263.710 247.509,261.390 252.287 " stroke="none" fill="#081010" fill-rule="evenodd"></path><path id="path2" d="M192.697 75.250 C 192.360 75.438,190.589 75.614,188.761 75.641 C 186.746 75.670,185.114 75.899,184.618 76.222 C 184.168 76.515,182.667 76.795,181.283 76.844 C 179.898 76.893,178.672 77.083,178.559 77.266 C 178.446 77.450,177.643 77.600,176.776 77.600 C 175.909 77.600,175.200 77.772,175.200 77.982 C 175.200 78.192,174.525 78.472,173.700 78.604 C 172.875 78.736,171.887 79.014,171.505 79.222 C 171.123 79.430,170.268 79.600,169.605 79.600 C 168.942 79.600,168.400 79.791,168.400 80.024 C 168.400 80.257,168.220 80.336,168.000 80.200 C 167.780 80.064,167.600 80.113,167.600 80.310 C 167.600 80.506,167.375 80.686,167.100 80.710 C 166.110 80.795,165.218 81.049,164.945 81.322 C 164.792 81.475,164.375 81.600,164.018 81.600 C 163.661 81.600,162.674 81.954,161.825 82.387 C 160.976 82.820,160.124 83.077,159.931 82.957 C 159.738 82.838,159.630 82.979,159.690 83.270 C 159.751 83.562,159.516 83.754,159.166 83.698 C 158.818 83.641,156.388 84.674,153.766 85.991 C 151.145 87.309,149.180 88.396,149.400 88.407 C 149.620 88.418,149.151 88.736,148.358 89.114 C 147.566 89.491,146.629 90.040,146.278 90.332 C 145.927 90.625,145.387 90.902,145.079 90.947 C 144.237 91.071,142.003 93.067,142.322 93.410 C 142.475 93.575,142.332 93.626,142.005 93.523 C 141.678 93.421,140.868 93.846,140.205 94.469 C 139.542 95.092,138.682 95.705,138.294 95.830 C 137.906 95.955,137.692 96.225,137.818 96.429 C 137.944 96.633,137.739 96.800,137.363 96.800 C 136.357 96.800,128.815 104.416,128.807 105.440 C 128.799 106.384,132.648 110.400,133.559 110.400 C 133.875 110.400,135.303 109.230,136.733 107.800 C 138.163 106.370,139.508 105.200,139.722 105.200 C 139.936 105.200,140.892 104.480,141.846 103.600 C 142.801 102.720,143.777 102.000,144.015 102.000 C 144.253 102.000,144.336 101.820,144.200 101.600 C 144.064 101.380,144.291 101.200,144.704 101.200 C 145.118 101.200,145.847 100.750,146.325 100.200 C 146.803 99.650,147.444 99.200,147.748 99.200 C 148.053 99.200,148.502 98.960,148.745 98.666 C 148.989 98.372,150.046 97.706,151.094 97.187 C 152.142 96.667,153.299 95.994,153.665 95.691 C 154.031 95.388,154.578 95.103,154.881 95.059 C 155.185 95.014,156.145 94.556,157.016 94.041 C 157.887 93.525,158.782 93.076,159.003 93.043 C 159.225 93.009,160.176 92.581,161.116 92.091 C 162.056 91.601,163.089 91.200,163.412 91.200 C 163.736 91.200,164.000 91.009,164.000 90.776 C 164.000 90.543,164.153 90.448,164.341 90.563 C 164.528 90.679,165.374 90.421,166.219 89.990 C 167.065 89.559,168.126 89.152,168.578 89.085 C 169.030 89.018,169.781 88.753,170.247 88.496 C 170.713 88.239,171.203 88.136,171.335 88.268 C 171.467 88.400,172.024 88.214,172.573 87.854 C 173.123 87.494,174.172 87.200,174.906 87.200 C 175.640 87.200,176.431 87.009,176.665 86.775 C 176.899 86.541,177.700 86.340,178.445 86.329 C 179.190 86.318,180.199 86.059,180.686 85.754 C 181.178 85.446,182.609 85.200,183.906 85.200 C 185.190 85.200,186.425 85.015,186.651 84.789 C 187.163 84.277,212.683 84.217,213.344 84.726 C 213.595 84.919,214.863 85.119,216.163 85.171 C 217.462 85.222,218.936 85.533,219.437 85.861 C 219.939 86.190,220.676 86.425,221.075 86.383 C 222.554 86.229,224.041 86.410,223.849 86.720 C 223.741 86.896,224.306 87.084,225.107 87.138 C 225.907 87.192,226.778 87.416,227.042 87.635 C 227.307 87.854,228.665 88.323,230.062 88.676 C 231.458 89.029,233.004 89.581,233.497 89.903 C 233.990 90.225,234.652 90.389,234.968 90.268 C 235.283 90.147,235.755 90.305,236.016 90.619 C 236.277 90.934,236.618 91.113,236.774 91.016 C 236.929 90.920,237.587 91.164,238.235 91.558 C 238.883 91.952,239.719 92.229,240.094 92.174 C 240.469 92.119,240.736 92.259,240.688 92.484 C 240.639 92.709,240.906 92.945,241.281 93.009 C 241.655 93.072,242.949 93.591,244.156 94.162 C 245.363 94.733,246.537 95.200,246.766 95.200 C 246.995 95.200,247.475 95.648,247.835 96.197 C 248.194 96.745,248.627 97.107,248.797 97.002 C 248.967 96.897,249.561 97.168,250.116 97.605 C 250.672 98.042,251.266 98.400,251.437 98.400 C 251.608 98.400,252.142 98.769,252.622 99.221 C 253.103 99.672,253.880 100.071,254.348 100.106 C 254.817 100.141,255.200 100.314,255.200 100.491 C 255.200 100.963,257.721 103.175,258.276 103.188 C 258.537 103.195,260.022 104.499,261.576 106.087 C 263.129 107.674,264.400 108.847,264.400 108.693 C 264.400 108.540,265.035 108.771,265.812 109.207 C 267.670 110.250,267.952 110.219,269.709 108.771 C 272.386 106.564,271.094 101.872,267.400 100.382 C 266.761 100.125,265.185 98.735,263.467 96.915 C 262.592 95.988,261.756 95.304,261.610 95.394 C 261.463 95.485,260.636 94.941,259.772 94.187 C 258.907 93.433,257.974 92.812,257.697 92.808 C 257.421 92.803,256.803 92.350,256.325 91.800 C 255.847 91.250,255.211 90.800,254.911 90.800 C 254.612 90.800,253.969 90.427,253.483 89.971 C 252.997 89.515,251.299 88.514,249.709 87.747 C 248.119 86.980,246.712 86.181,246.581 85.970 C 246.451 85.759,246.177 85.691,245.972 85.817 C 245.768 85.944,245.600 85.874,245.600 85.663 C 245.600 85.451,245.060 85.090,244.400 84.860 C 243.740 84.630,243.200 84.557,243.200 84.697 C 243.200 84.838,242.957 84.621,242.661 84.215 C 242.364 83.810,241.926 83.598,241.688 83.745 C 241.450 83.893,241.154 83.849,241.030 83.648 C 240.700 83.115,237.540 81.526,237.296 81.771 C 237.181 81.885,236.618 81.739,236.044 81.445 C 234.629 80.721,232.435 79.951,231.095 79.708 C 230.487 79.598,229.892 79.349,229.771 79.154 C 229.651 78.959,229.059 78.800,228.456 78.800 C 227.853 78.800,227.118 78.575,226.821 78.300 C 226.401 77.910,226.344 77.909,226.562 78.295 C 226.749 78.627,226.638 78.713,226.223 78.554 C 225.883 78.423,225.697 78.166,225.810 77.983 C 225.924 77.800,225.278 77.660,224.376 77.673 C 223.473 77.685,222.534 77.494,222.288 77.248 C 222.041 77.001,220.832 76.800,219.600 76.800 C 218.362 76.800,217.119 76.576,216.821 76.300 C 216.384 75.894,216.337 75.913,216.571 76.400 C 216.776 76.827,216.702 76.809,216.314 76.339 C 215.890 75.825,214.969 75.661,212.184 75.605 C 210.213 75.566,208.330 75.524,208.000 75.512 C 207.670 75.500,207.220 75.354,207.000 75.187 C 206.450 74.768,193.455 74.826,192.697 75.250 M124.995 108.476 C 124.448 108.906,124.000 109.521,124.000 109.842 C 124.000 110.163,123.730 110.529,123.400 110.655 C 123.070 110.782,122.800 111.054,122.800 111.260 C 122.800 111.466,122.334 112.122,121.765 112.717 C 120.725 113.805,119.286 115.788,117.800 118.181 C 117.360 118.889,116.505 120.215,115.900 121.126 C 115.295 122.038,114.800 122.981,114.800 123.221 C 114.800 123.461,114.530 123.927,114.200 124.257 C 113.870 124.587,113.600 125.204,113.600 125.629 C 113.600 126.053,113.420 126.400,113.200 126.400 C 112.980 126.400,112.800 126.681,112.800 127.024 C 112.800 127.367,112.637 127.546,112.437 127.423 C 112.238 127.300,111.752 128.234,111.356 129.499 C 110.961 130.765,110.422 132.020,110.159 132.289 C 109.895 132.558,109.442 133.703,109.152 134.835 C 108.862 135.966,108.394 136.981,108.113 137.089 C 107.831 137.197,107.600 137.706,107.600 138.219 C 107.600 138.733,107.420 139.264,107.200 139.400 C 106.980 139.536,106.800 140.141,106.800 140.744 C 106.800 141.347,106.593 142.047,106.340 142.300 C 105.913 142.727,105.588 144.105,104.946 148.200 C 104.808 149.080,104.472 150.070,104.199 150.400 C 103.926 150.730,103.692 151.564,103.679 152.253 C 103.667 152.942,103.456 154.248,103.212 155.155 C 102.370 158.283,102.742 159.992,104.278 160.050 C 105.005 160.078,105.780 160.145,106.000 160.200 C 106.220 160.255,106.535 160.323,106.700 160.350 C 106.865 160.378,105.650 161.075,104.000 161.900 L 101.000 163.400 100.929 166.676 C 100.867 169.591,100.933 169.925,101.529 169.701 C 102.089 169.492,102.118 169.552,101.703 170.062 C 101.430 170.398,101.305 170.771,101.424 170.891 C 101.544 171.010,101.647 172.210,101.653 173.558 C 101.661 175.126,101.869 176.212,102.232 176.575 C 102.545 176.887,102.800 177.865,102.800 178.748 C 102.800 179.631,102.980 180.464,103.200 180.600 C 103.420 180.736,103.600 181.355,103.600 181.975 C 103.600 182.595,103.870 183.326,104.200 183.600 C 104.530 183.874,104.800 184.557,104.800 185.117 C 104.800 185.678,105.093 186.461,105.452 186.857 C 106.058 187.527,106.020 187.740,104.907 189.916 C 104.069 191.552,103.728 192.765,103.771 193.956 C 103.804 194.891,103.662 195.762,103.454 195.890 C 103.234 196.026,103.212 195.905,103.400 195.600 C 103.613 195.256,103.567 195.173,103.268 195.358 C 102.631 195.752,102.836 197.672,103.488 197.422 C 103.770 197.314,104.000 197.399,104.000 197.613 C 104.000 197.826,103.809 198.000,103.576 198.000 C 103.343 198.000,103.260 198.173,103.391 198.385 C 103.521 198.596,103.635 200.125,103.644 201.782 C 103.655 203.896,103.822 204.885,104.205 205.099 C 104.558 205.296,104.783 206.287,104.841 207.902 C 104.891 209.276,105.082 210.400,105.266 210.400 C 105.450 210.400,105.600 211.176,105.600 212.124 C 105.600 213.071,105.864 214.196,106.187 214.624 C 106.510 215.051,106.780 216.064,106.787 216.876 C 106.794 217.688,106.980 218.464,107.200 218.600 C 107.420 218.736,107.600 219.431,107.600 220.144 C 107.600 220.857,107.802 221.642,108.048 221.888 C 108.294 222.134,108.642 223.025,108.821 223.868 C 109.529 227.196,109.976 228.592,110.379 228.726 C 110.610 228.803,110.800 229.392,110.800 230.033 C 110.800 230.675,110.991 231.200,111.224 231.200 C 111.457 231.200,111.536 231.380,111.400 231.600 C 111.264 231.820,111.338 232.000,111.564 232.000 C 111.790 232.000,111.882 232.241,111.769 232.536 C 111.656 232.831,111.842 233.303,112.182 233.585 C 112.522 233.867,112.800 234.594,112.800 235.200 C 112.800 235.806,113.074 236.530,113.410 236.808 C 113.745 237.086,113.924 237.409,113.808 237.525 C 113.692 237.641,113.836 238.111,114.129 238.568 C 114.421 239.026,114.894 240.252,115.180 241.292 C 115.466 242.333,115.947 243.390,116.250 243.641 C 116.552 243.892,116.813 244.391,116.829 244.749 C 116.845 245.107,117.203 245.940,117.625 246.600 C 118.046 247.260,118.502 248.070,118.638 248.400 C 119.559 250.634,121.348 253.805,122.128 254.585 C 122.498 254.955,122.803 255.469,122.806 255.729 C 122.810 255.988,123.350 256.809,124.006 257.554 C 124.663 258.299,125.200 259.085,125.200 259.300 C 125.200 259.877,129.315 263.987,129.900 263.994 C 130.175 263.997,130.400 264.177,130.400 264.392 C 130.400 264.608,130.895 264.903,131.500 265.048 C 132.105 265.192,132.853 265.510,133.162 265.755 C 133.778 266.244,142.000 266.390,142.000 265.913 C 142.000 265.754,142.300 265.740,142.666 265.881 C 143.113 266.052,143.236 265.983,143.042 265.668 C 142.838 265.338,143.267 265.200,144.496 265.200 C 146.543 265.200,147.200 264.679,147.200 263.058 C 147.200 261.938,147.239 261.911,147.931 262.538 C 150.443 264.811,155.094 261.654,152.724 259.284 C 152.462 259.022,152.208 258.581,152.159 258.304 C 151.973 257.254,150.105 254.028,149.837 254.296 C 149.684 254.450,149.676 254.266,149.822 253.888 C 149.973 253.493,149.897 253.200,149.643 253.200 C 149.399 253.200,149.200 252.951,149.200 252.646 C 149.200 251.785,148.155 249.978,147.839 250.294 C 147.685 250.449,147.676 250.266,147.822 249.888 C 147.973 249.493,147.897 249.200,147.643 249.200 C 147.399 249.200,147.200 248.943,147.200 248.629 C 147.200 248.315,146.570 246.849,145.800 245.372 C 145.030 243.895,144.394 242.487,144.387 242.243 C 144.381 241.999,143.932 240.900,143.391 239.800 C 142.850 238.700,142.406 237.597,142.404 237.349 C 142.402 237.101,142.130 236.674,141.800 236.400 C 141.470 236.126,141.200 235.406,141.200 234.800 C 141.200 234.194,140.926 233.470,140.590 233.192 C 140.255 232.914,140.059 232.608,140.154 232.512 C 140.250 232.417,140.008 231.588,139.618 230.669 C 138.253 227.460,138.127 226.998,137.845 224.161 C 137.778 223.479,137.568 222.672,137.379 222.366 C 137.191 222.061,137.083 221.269,137.140 220.606 C 137.197 219.943,136.961 218.725,136.616 217.900 C 136.271 217.075,136.086 216.400,136.205 216.400 C 136.324 216.400,136.146 215.869,135.810 215.220 C 135.475 214.571,135.200 213.527,135.200 212.900 C 135.200 212.273,135.018 211.578,134.795 211.355 C 134.572 211.132,134.325 210.183,134.246 209.246 C 134.166 208.308,133.898 207.338,133.651 207.091 C 133.403 206.843,133.200 205.992,133.200 205.200 C 133.200 204.408,133.009 203.569,132.775 203.335 C 132.541 203.101,132.332 202.304,132.311 201.563 C 132.290 200.822,132.032 199.974,131.737 199.679 C 131.441 199.384,131.200 198.357,131.200 197.397 C 131.200 196.438,131.013 195.161,130.785 194.562 C 130.557 193.962,130.360 192.825,130.347 192.036 C 130.317 190.202,130.029 189.135,129.629 189.382 C 129.457 189.488,129.280 188.217,129.236 186.556 C 129.192 184.896,128.981 183.077,128.768 182.515 C 128.554 181.952,128.371 179.879,128.362 177.907 C 128.344 174.138,128.150 173.060,127.558 173.426 C 127.361 173.548,127.200 173.197,127.200 172.647 C 127.200 171.341,125.555 170.302,124.974 171.242 C 124.848 171.446,124.549 171.492,124.311 171.345 C 124.051 171.185,123.991 171.263,124.162 171.538 C 124.319 171.792,124.262 172.000,124.036 172.000 C 123.810 172.000,123.726 172.264,123.850 172.586 C 124.022 173.033,123.805 173.137,122.930 173.027 C 121.417 172.835,119.989 174.024,119.729 175.691 C 119.376 177.954,118.400 177.607,118.400 175.219 C 118.400 174.325,118.182 173.602,117.877 173.485 C 117.571 173.367,117.314 172.508,117.257 171.416 C 117.204 170.389,117.004 169.135,116.812 168.631 C 116.252 167.159,116.205 163.317,116.738 162.674 C 117.591 161.647,116.896 158.747,115.808 158.792 C 113.015 158.905,111.122 158.700,111.937 158.374 C 112.452 158.167,113.021 158.089,113.201 158.201 C 113.969 158.675,114.820 157.814,115.059 156.322 C 115.199 155.447,115.537 154.646,115.810 154.541 C 116.087 154.434,116.316 153.630,116.329 152.719 C 116.341 151.822,116.542 150.898,116.776 150.664 C 117.009 150.431,117.200 149.659,117.200 148.949 C 117.200 148.238,117.487 147.370,117.839 147.018 C 118.190 146.667,118.378 146.119,118.256 145.801 C 118.134 145.483,118.251 144.993,118.517 144.712 C 118.783 144.430,119.062 143.763,119.137 143.229 C 119.213 142.695,119.552 141.835,119.891 141.317 C 120.231 140.799,120.413 140.280,120.297 140.163 C 120.026 139.893,126.333 127.445,126.832 127.266 C 127.037 127.192,127.118 126.991,127.012 126.819 C 126.906 126.647,127.175 126.185,127.609 125.791 C 128.044 125.398,128.400 124.822,128.400 124.512 C 128.400 124.202,128.940 123.494,129.601 122.938 C 130.262 122.382,130.695 121.754,130.564 121.542 C 130.434 121.331,130.667 120.852,131.082 120.479 C 131.498 120.105,132.275 119.170,132.808 118.400 C 133.342 117.630,134.098 116.651,134.489 116.225 C 135.741 114.859,135.352 113.891,132.400 111.028 C 130.860 109.535,129.594 108.468,129.587 108.657 C 129.580 108.845,129.355 108.725,129.087 108.390 C 128.384 107.509,126.165 107.555,124.995 108.476 M268.961 110.523 C 265.361 114.032,264.919 115.380,266.765 117.226 C 267.391 117.852,267.804 118.462,267.685 118.582 C 267.565 118.702,267.672 118.800,267.923 118.800 C 268.174 118.800,268.637 119.295,268.952 119.900 C 269.266 120.505,269.901 121.433,270.362 121.961 C 270.823 122.490,271.200 123.125,271.200 123.372 C 271.200 123.620,271.560 124.130,272.000 124.507 C 272.440 124.884,272.800 125.421,272.800 125.700 C 272.800 125.980,273.250 126.693,273.800 127.287 C 274.350 127.880,274.813 128.598,274.829 128.883 C 274.845 129.167,275.196 129.940,275.608 130.600 C 276.711 132.367,279.600 138.226,279.600 138.696 C 279.600 138.919,279.870 139.326,280.200 139.600 C 280.530 139.874,280.806 140.571,280.813 141.149 C 280.820 141.727,281.084 142.542,281.400 142.959 C 281.716 143.376,281.879 143.873,281.762 144.062 C 281.645 144.251,281.830 144.688,282.174 145.032 C 282.519 145.376,282.800 146.238,282.800 146.949 C 282.800 147.659,282.991 148.431,283.225 148.665 C 283.459 148.899,283.660 149.700,283.671 150.445 C 283.682 151.190,283.941 152.199,284.246 152.686 C 284.550 153.173,284.800 154.175,284.800 154.911 C 284.800 156.451,286.372 158.219,288.000 158.512 C 288.550 158.610,288.042 158.716,286.871 158.746 C 283.835 158.823,282.358 161.718,284.342 163.702 C 284.932 164.292,284.931 165.709,284.340 166.300 C 283.688 166.952,283.205 170.396,283.763 170.413 C 284.004 170.420,283.885 170.665,283.500 170.957 C 283.063 171.288,282.800 172.025,282.800 172.916 C 282.800 173.701,282.546 174.597,282.236 174.907 C 281.926 175.217,281.591 175.904,281.491 176.435 C 281.337 177.249,281.300 177.206,281.254 176.161 C 281.199 174.900,279.931 173.002,279.459 173.474 C 279.317 173.617,279.200 173.543,279.200 173.311 C 279.200 172.794,277.906 172.852,277.523 173.386 C 277.371 173.599,277.067 173.301,276.848 172.725 C 275.459 169.074,272.800 170.417,272.800 174.769 C 272.800 176.681,272.613 178.027,272.303 178.337 C 271.908 178.732,271.928 178.910,272.403 179.211 C 272.929 179.543,272.703 179.761,271.939 179.660 C 271.796 179.642,271.673 180.926,271.667 182.514 C 271.661 184.102,271.463 185.908,271.228 186.527 C 270.993 187.146,270.800 188.373,270.800 189.255 C 270.800 190.136,270.537 191.120,270.215 191.442 C 269.876 191.781,269.640 192.738,269.654 193.714 C 269.667 194.641,269.481 195.907,269.239 196.526 C 268.998 197.145,268.800 198.277,268.800 199.040 C 268.800 199.804,268.550 200.827,268.246 201.314 C 267.941 201.801,267.682 202.810,267.671 203.555 C 267.660 204.300,267.459 205.101,267.225 205.335 C 266.991 205.569,266.800 206.360,266.800 207.094 C 266.800 207.828,266.525 208.847,266.190 209.359 C 265.854 209.871,265.555 210.945,265.525 211.745 C 265.495 212.545,265.320 213.200,265.135 213.200 C 264.951 213.200,264.800 213.808,264.800 214.551 C 264.800 215.294,264.518 216.136,264.174 216.421 C 263.791 216.739,263.635 217.283,263.770 217.825 C 263.906 218.364,263.750 218.909,263.371 219.224 C 262.706 219.776,262.661 222.792,263.310 223.242 C 263.502 223.375,263.363 223.780,263.001 224.142 C 262.639 224.504,262.519 224.800,262.734 224.800 C 263.260 224.800,262.878 226.134,261.739 228.277 C 261.222 229.248,260.800 230.461,260.800 230.972 C 260.800 231.484,260.552 232.108,260.250 232.359 C 259.947 232.610,259.464 233.658,259.175 234.688 C 258.887 235.718,258.234 237.345,257.725 238.302 C 257.216 239.259,256.800 240.472,256.800 240.998 C 256.800 241.523,256.625 242.061,256.411 242.193 C 256.197 242.326,255.730 243.101,255.375 243.917 C 255.019 244.733,254.479 245.870,254.175 246.444 C 253.870 247.018,253.736 247.603,253.877 247.744 C 254.018 247.885,253.913 248.000,253.643 248.000 C 253.373 248.000,253.256 248.168,253.383 248.372 C 253.509 248.577,253.430 248.858,253.207 248.996 C 252.983 249.134,252.800 249.602,252.800 250.036 C 252.800 250.470,252.527 250.930,252.193 251.058 C 251.859 251.186,251.631 251.496,251.687 251.746 C 251.827 252.376,250.746 254.914,250.131 255.400 C 247.792 257.249,247.004 262.049,248.855 263.175 C 250.107 263.937,251.851 264.043,251.722 263.350 C 251.679 263.121,251.904 262.933,252.222 262.933 C 252.540 262.933,252.800 263.227,252.800 263.587 C 252.800 264.562,253.622 265.200,254.877 265.200 C 256.072 265.200,256.278 266.282,255.275 267.285 C 255.008 267.552,254.800 268.876,254.800 270.309 C 254.800 272.096,254.612 273.046,254.169 273.488 C 253.822 273.835,253.625 274.452,253.731 274.859 C 253.838 275.266,253.770 275.695,253.580 275.812 C 253.390 275.930,253.336 276.290,253.460 276.613 C 253.584 276.936,253.486 277.200,253.243 277.200 C 252.999 277.200,252.800 277.610,252.800 278.111 C 252.800 278.612,252.556 279.377,252.257 279.811 C 251.959 280.245,251.700 281.212,251.682 281.961 C 251.664 282.709,251.491 283.429,251.296 283.561 C 250.431 284.145,251.222 287.466,252.100 286.934 C 252.265 286.835,252.400 286.954,252.400 287.200 C 252.400 287.446,252.561 287.548,252.758 287.426 C 252.955 287.304,253.219 287.474,253.346 287.802 C 253.876 289.185,257.200 287.222,257.200 285.525 C 257.200 285.126,257.489 284.800,257.843 284.800 C 258.230 284.800,258.400 284.577,258.270 284.239 C 258.152 283.930,258.307 283.345,258.615 282.939 C 258.923 282.532,259.180 281.885,259.187 281.500 C 259.194 281.115,259.399 280.800,259.643 280.800 C 259.886 280.800,259.978 280.521,259.847 280.179 C 259.701 279.798,259.774 279.660,260.037 279.823 C 260.292 279.980,260.427 279.786,260.370 279.344 C 260.318 278.935,260.483 278.093,260.737 277.474 C 260.992 276.855,261.200 276.180,261.200 275.975 C 261.200 275.770,261.855 274.877,262.656 273.990 C 263.457 273.104,264.162 271.925,264.223 271.370 C 264.284 270.816,264.548 270.104,264.810 269.788 C 265.071 269.473,265.220 268.525,265.139 267.681 C 265.005 266.276,265.068 266.162,265.892 266.320 C 266.466 266.429,266.879 266.259,267.038 265.846 C 267.182 265.469,267.742 265.200,268.381 265.200 C 268.990 265.200,269.814 264.824,270.238 264.353 C 270.657 263.887,271.283 263.392,271.629 263.253 C 272.373 262.954,276.385 258.240,277.121 256.800 C 277.984 255.111,278.644 254.037,279.271 253.303 C 280.067 252.370,283.200 246.016,283.200 245.335 C 283.200 245.041,283.362 244.800,283.561 244.800 C 284.004 244.800,284.825 242.559,284.501 242.234 C 284.372 242.105,284.438 242.000,284.648 242.000 C 284.858 242.000,285.058 241.620,285.093 241.155 C 285.128 240.691,285.419 240.016,285.739 239.655 C 286.059 239.295,286.552 238.190,286.834 237.200 C 287.117 236.210,287.585 235.045,287.874 234.611 C 288.163 234.177,288.400 233.500,288.400 233.106 C 288.400 232.384,288.524 232.073,289.766 229.699 C 290.140 228.984,290.352 228.245,290.236 228.058 C 290.120 227.871,290.284 227.376,290.600 226.959 C 290.916 226.542,291.180 225.519,291.187 224.687 C 291.195 223.730,291.417 223.092,291.792 222.948 C 292.118 222.823,292.356 222.333,292.320 221.860 C 292.285 221.387,292.462 220.370,292.713 219.600 C 292.964 218.830,293.233 217.692,293.309 217.070 C 293.386 216.449,293.689 215.792,293.982 215.611 C 294.276 215.429,294.415 215.015,294.290 214.690 C 294.165 214.365,294.284 213.672,294.554 213.150 C 294.823 212.627,295.089 211.306,295.145 210.213 C 295.200 209.121,295.443 207.989,295.684 207.699 C 295.925 207.409,296.190 206.143,296.274 204.885 C 296.358 203.628,296.600 202.078,296.813 201.440 C 297.026 200.802,297.200 198.709,297.200 196.789 C 297.200 193.234,296.975 192.422,295.041 189.000 L 294.136 187.400 294.968 186.200 C 295.426 185.540,295.958 184.885,296.151 184.745 C 296.344 184.604,296.395 184.316,296.264 184.104 C 296.133 183.891,296.284 183.376,296.600 182.959 C 296.916 182.542,297.180 181.512,297.187 180.671 C 297.194 179.831,297.459 178.884,297.775 178.568 C 298.091 178.252,298.340 177.319,298.329 176.496 C 298.318 175.672,298.520 174.279,298.778 173.399 C 299.632 170.491,299.180 163.511,298.103 162.975 C 297.609 162.730,296.844 162.202,296.403 161.802 C 295.961 161.403,295.600 161.230,295.600 161.418 C 295.600 161.606,295.384 161.544,295.120 161.280 C 294.856 161.016,294.226 160.800,293.720 160.800 C 293.214 160.800,292.800 160.638,292.800 160.440 C 292.800 160.242,293.580 160.161,294.534 160.260 C 297.019 160.519,297.333 159.980,297.065 155.909 C 296.766 151.359,296.212 148.271,295.662 148.087 C 295.408 148.003,295.200 147.507,295.200 146.986 C 295.200 145.793,294.134 141.655,293.672 141.052 C 293.480 140.804,293.099 139.700,292.823 138.600 C 292.548 137.500,291.620 135.126,290.761 133.324 C 289.903 131.522,289.200 129.929,289.200 129.784 C 289.200 129.292,287.869 126.603,287.284 125.915 C 286.964 125.537,286.039 123.868,285.227 122.205 C 284.416 120.542,283.628 119.305,283.476 119.457 C 283.324 119.609,283.200 119.478,283.200 119.167 C 283.199 118.855,282.749 118.077,282.200 117.438 C 281.650 116.799,281.197 116.169,281.194 116.038 C 281.190 115.907,280.650 115.191,279.994 114.446 C 279.337 113.701,278.800 112.885,278.800 112.633 C 278.800 112.381,277.760 111.146,276.488 109.887 C 273.322 106.754,272.783 106.799,268.961 110.523 M139.468 252.400 C 141.926 257.350,143.951 261.710,143.968 262.090 C 144.046 263.788,135.282 265.345,134.044 263.853 C 133.746 263.494,133.260 263.200,132.965 263.200 C 131.237 263.200,127.775 258.752,124.445 252.254 C 121.768 247.031,121.727 246.273,124.097 245.811 C 127.153 245.215,129.539 244.627,131.600 243.960 C 134.875 242.900,134.612 242.618,139.468 252.400 M269.189 243.999 C 270.625 244.438,273.150 245.113,274.800 245.499 C 278.829 246.441,278.874 246.877,275.585 253.114 C 272.246 259.445,269.423 263.200,268.002 263.200 C 267.649 263.200,267.157 263.403,266.910 263.650 C 266.305 264.255,258.171 264.114,257.158 263.481 C 256.044 262.785,256.143 262.425,259.149 256.249 C 260.660 253.142,262.636 249.060,263.538 247.177 C 265.763 242.537,265.286 242.805,269.189 243.999 " stroke="none" fill="#f2f2f2" fill-rule="evenodd"></path></g></svg>