<?xml version="1.0" encoding="UTF-8"?>
<svg version="1.1" xmlns="http://www.w3.org/2000/svg" width="2048" height="2048">
<path d="M0 0 C1.48113281 0.81597656 1.48113281 0.81597656 2.9921875 1.6484375 C10.93571607 6.3685052 17.47098603 12.52880427 24 19 C24.7425 19.72960937 25.485 20.45921875 26.25 21.2109375 C44.19320112 40.09470965 54.17512575 67.33246747 54.13422108 93.15862274 C54.13657331 94.17185317 54.13892554 95.18508359 54.14134905 96.22901797 C54.1480209 99.63376853 54.14758137 103.03848077 54.14717102 106.4432373 C54.15047076 108.90521951 54.15419656 111.36720117 54.1583125 113.82918215 C54.16727737 119.89209238 54.17155811 125.9549903 54.17383147 132.01790543 C54.17679728 139.28084571 54.18549688 146.54377634 54.19424575 153.80671155 C54.21507528 171.36047316 54.22555746 188.91423644 54.23437535 206.46800752 C54.23858385 214.77419077 54.24380556 223.08037329 54.24905988 231.38655592 C54.26694847 259.82646602 54.28194408 288.26637632 54.28938007 316.7062912 C54.28985483 318.49125307 54.29033072 320.27621494 54.29080774 322.06117681 C54.2911623 323.38892809 54.2911623 323.38892809 54.29152403 324.74350264 C54.29272521 329.2280903 54.29394066 333.71267797 54.29516602 338.19726562 C54.29540617 339.08723997 54.29564632 339.97721431 54.29589374 340.89415757 C54.30378596 369.74663126 54.32721704 398.59906383 54.35972196 427.45151957 C54.39403523 457.96490044 54.41373257 488.47825725 54.41702431 518.99165773 C54.41744184 522.34262881 54.41792141 525.69359987 54.41844749 529.04457092 C54.41857069 529.86965806 54.41869388 530.6947452 54.4188208 531.54483498 C54.42115088 544.8111581 54.43680002 558.07743338 54.45728934 571.34373946 C54.47756525 584.68371019 54.48301628 598.02362358 54.47351871 611.36360687 C54.46831073 619.28344679 54.47414788 627.20309552 54.49605338 635.12290785 C54.51119148 641.04481051 54.50529369 646.96657347 54.49138286 652.88848311 C54.48900413 655.27816481 54.49334398 657.66786501 54.50521151 660.05751842 C54.60006502 680.42440089 52.95363758 697.70782046 38.3125 713.3125 C26.90291192 724.04992202 11.78689687 730.45814453 -4 730 C-27.88236977 727.50375231 -42.76892753 713.6313404 -57.375 695.6875 C-58.096875 694.79160156 -58.81875 693.89570312 -59.5625 692.97265625 C-62.43719855 689.46681395 -65.39725778 686.04332653 -68.375 682.625 C-73.86006506 676.32577046 -79.27995262 669.97604017 -84.66162109 663.58837891 C-86.91767416 660.9109106 -89.17699337 658.23620884 -91.4375 655.5625 C-91.88883301 655.02866699 -92.34016602 654.49483398 -92.80517578 653.94482422 C-96.18730228 649.94929043 -99.59008636 645.97183053 -103 642 C-108.23973352 635.89681506 -113.44335168 629.76403713 -118.63232422 623.61767578 C-120.02459417 621.97091021 -121.42005473 620.32689933 -122.81640625 618.68359375 C-127.13498801 613.59771327 -131.42475401 608.49717864 -135.625 603.3125 C-139.20222179 598.91417214 -142.94597541 594.70701146 -146.76171875 590.515625 C-149.80879057 587.09099279 -152.67745642 583.53388192 -155.5625 579.97265625 C-159.77122483 574.83990049 -164.11906527 569.82654106 -168.45166016 564.79833984 C-171.47196834 561.29036285 -174.48134467 557.7730065 -177.49267578 554.25732422 C-180.02658135 551.29986016 -182.56327675 548.344877 -185.10546875 545.39453125 C-189.60880698 540.16326589 -194.09029743 534.92510755 -198.4375 529.5625 C-203.59186792 523.21723119 -208.97362765 517.07490552 -214.34033203 510.90966797 C-220.54872623 503.76608759 -226.72823972 496.60354128 -232.6875 489.25 C-236.24267904 484.86848205 -239.96769537 480.68289319 -243.765625 476.51171875 C-246.78690037 473.11542494 -249.62575933 469.5840702 -252.484375 466.05078125 C-255.97737903 461.81470028 -259.57168257 457.66894648 -263.21972656 453.56567383 C-265.72070939 450.73414709 -268.00034047 447.99948676 -270.09375 444.84375 C-274.43275877 438.37080249 -278.5994608 435.98209218 -285.8203125 433.77734375 C-286.72814484 433.48778305 -287.63597717 433.19822235 -288.57131958 432.89988708 C-291.7076342 431.91046048 -294.85199857 430.95157516 -298 430 C-299.1612439 429.64834778 -300.32248779 429.29669556 -301.5189209 428.93438721 C-310.22373121 426.31180814 -318.94628217 423.75185669 -327.6735878 421.20539093 C-331.42996431 420.10839493 -335.18496523 419.00670761 -338.94018555 417.90576172 C-358.692362 412.1176943 -378.456498 406.37065181 -398.22399902 400.63516235 C-414.31413954 395.96603734 -430.37869645 391.21796356 -446.427948 386.41036987 C-465.61681385 380.66687483 -484.85668852 375.10351525 -504.09965515 369.54487228 C-527.75958308 362.70958436 -551.38475959 355.77013515 -574.9699707 348.68066406 C-584.58003529 345.79405653 -594.18665508 342.911054 -603.85546875 340.2265625 C-644.60153132 328.90566899 -644.60153132 328.90566899 -655.4453125 309.91796875 C-663.73265858 294.29122258 -666.05092725 278.88422646 -661.03125 261.6796875 C-654.6305277 243.38573119 -641.8160112 233.13827549 -624.87445068 224.97592163 C-620.22678455 222.83403355 -615.52997204 220.80650027 -610.82617188 218.79150391 C-606.29840697 216.85115583 -601.78273537 214.88296189 -597.265625 212.91796875 C-596.33262573 212.51283051 -595.39962646 212.10769226 -594.43835449 211.6902771 C-584.57726246 207.39956887 -574.78761846 202.95511476 -565 198.5 C-550.36906463 191.84742754 -535.68793067 185.32238556 -520.95883179 178.89028931 C-507.69447983 173.09515314 -494.49018865 167.17692427 -481.3125 161.1875 C-468.41209973 155.32410761 -455.47986456 149.56765243 -442.45751953 143.97998047 C-431.80642004 139.39104211 -421.24551498 134.6111505 -410.6875 129.8125 C-396.39660745 123.3176009 -382.06958003 116.91548741 -367.6875 110.625 C-351.41638583 103.50723483 -335.19259586 96.29487893 -319 89 C-303.65081473 82.08786863 -288.28155363 75.23589971 -272.84603882 68.51931763 C-260.84583133 63.29228984 -248.91769843 57.91213503 -237 52.5 C-224.43108722 46.7921317 -211.84541382 41.1329418 -199.1875 35.625 C-189.20528384 31.28107037 -179.24352547 26.89737739 -169.3125 22.4375 C-168.1275293 21.90535889 -166.94255859 21.37321777 -165.72167969 20.82495117 C-160.93704894 18.67422108 -156.15377144 16.52051708 -151.37207031 14.36328125 C-142.92484418 10.55263865 -134.46718849 6.76610875 -126 3 C-124.7652606 2.44816641 -123.5305603 1.89624533 -122.29589844 1.34423828 C-80.67740394 -17.22660627 -41.22984911 -22.82488074 0 0 Z " fill="#1F1F1E" transform="translate(1482,527)"/>
<path d="M0 0 C0.77988281 0.350625 1.55976562 0.70125 2.36328125 1.0625 C16.35253703 8.0208863 26.91910735 22.05276235 36.5546875 34.01953125 C39.47003344 37.57290019 42.47799995 41.03734593 45.5 44.5 C49.32326173 48.88203766 53.09154701 53.29060094 56.75 57.8125 C59.57487839 61.30235888 62.47717579 64.68010514 65.5 68 C68.52282421 71.31989486 71.42512161 74.69764112 74.25 78.1875 C77.87263314 82.66214616 81.59482326 87.03387598 85.375 91.375 C92.91878754 100.04179316 100.38869935 108.76105993 107.625 117.6875 C111.20222179 122.08582786 114.94597541 126.29298854 118.76171875 130.484375 C121.80879057 133.90900721 124.67745642 137.46611808 127.5625 141.02734375 C131.76990214 146.15848642 136.11613733 151.17054834 140.44726562 156.19726562 C161.20010868 180.29144694 161.20010868 180.29144694 169.625 190.6875 C173.20222179 195.08582786 176.94597541 199.29298854 180.76171875 203.484375 C183.80517651 206.90494533 186.67088551 210.45721979 189.55078125 214.015625 C192.8208186 218.00016812 196.1869502 221.89802477 199.5534668 225.80102539 C202.63668534 229.38427842 205.65501054 233.00912082 208.625 236.6875 C211.6399087 240.40443618 214.7608322 243.9767821 218 247.5 C222.05662087 251.91290344 225.88673693 256.45500762 229.65234375 261.1171875 C231.31582055 263.15985951 232.98990131 265.18493757 234.69140625 267.1953125 C235.15119873 267.73857178 235.61099121 268.28183105 236.0847168 268.84155273 C237.0314064 269.95089593 237.98477196 271.05457519 238.94458008 272.15258789 C241.15227531 274.69823819 243.05965753 277.09793565 244.8203125 279.98828125 C251.30252828 290.13252802 261.71862806 291.78071756 272.66308594 294.78613281 C277.63498076 296.1618555 282.57025088 297.65494391 287.5078125 299.1484375 C307.37114642 305.14629629 327.28278692 310.9723976 347.224823 316.70248413 C366.94892123 322.37292311 386.6305077 328.1855551 406.3125 334 C429.60905699 340.88215853 452.91240765 347.73903104 476.23750591 354.52387524 C481.33987003 356.00826072 486.44134891 357.49565569 491.54223633 358.98510742 C492.26790582 359.19699487 492.99357531 359.40888231 493.74123478 359.62719059 C496.70160121 360.49166753 499.66193266 361.35626393 502.6221714 362.22117805 C511.66523848 364.86329457 520.7104955 367.49763392 529.75927734 370.12011719 C538.12294023 372.54417563 546.48311796 374.979908 554.83992863 377.42748737 C559.32385028 378.7403052 563.80912869 380.04791293 568.29849243 381.3420105 C572.50125926 382.55362112 576.69947046 383.77993359 580.89486122 385.01683426 C582.42778343 385.46607246 583.96220963 385.91022038 585.498312 386.34846115 C593.53747375 388.64540878 601.15617692 391.3022047 608.66796875 395.00268555 C609.31586365 395.31962026 609.96375854 395.63655497 610.63128662 395.96309376 C623.49161253 402.5829836 631.57205336 414.73320348 636.4375 428.0625 C640.7658897 443.6896732 638.46874766 459.82638453 631 474.0625 C628.92966334 477.60716731 626.86500593 481.03267243 624 484 C623.34 484 622.68 484 622 484 C622 484.66 622 485.32 622 486 C620.11611841 487.51925935 618.24538138 488.89095893 616.25 490.25 C615.18265625 490.99765625 614.1153125 491.7453125 613.015625 492.515625 C604.01939051 498.32029332 594.00076465 502.40970786 584.18728638 506.60858154 C582.20214171 507.45797742 580.21890253 508.3116932 578.23608398 509.16650391 C575.63897504 510.28581107 573.04127724 511.40372706 570.44287109 512.52001953 C560.86352713 516.63787396 551.32297787 520.81748461 541.88476562 525.2512207 C529.10444305 531.24650279 516.18520216 536.92910595 503.24465942 542.56826782 C502.58642181 542.85511444 501.9281842 543.14196106 501.25 543.4375 C500.58781464 543.72603851 499.92562927 544.01457703 499.24337769 544.31185913 C485.50687581 550.30190845 471.83842937 556.44004024 458.18066406 562.60717773 C456.58138904 563.32928389 454.9821053 564.05137072 453.3828125 564.7734375 C452.60381592 565.12521561 451.82481934 565.47699371 451.0222168 565.83943176 C444.76273889 568.66306257 438.48954287 571.45513067 432.21151733 574.23724365 C428.18694601 576.02219997 424.17329289 577.82758278 420.171875 579.6640625 C414.25307142 582.36612501 408.25223278 584.86519326 402.25 587.375 C393.40384703 591.09646365 384.66087809 594.93844747 375.99414062 599.06054688 C358.63955584 607.23640905 341.0429633 614.91217578 323.375 622.3828125 C314.56429763 626.11349144 305.91361146 629.94366966 297.3984375 634.3125 C292.37413403 636.80732655 287.23555371 639.01472125 282.08203125 641.2265625 C279.02167691 642.54190104 275.99409173 643.91860472 272.96875 645.3125 C268.55992752 647.32447317 264.1134586 649.23105057 259.63671875 651.0859375 C258.99092361 651.35379059 258.34512848 651.62164368 257.67976379 651.89761353 C255.02006538 652.99924147 252.35965365 654.09905022 249.6965332 655.19238281 C241.29311413 658.64683447 233.11392644 662.34856239 225.01733398 666.47314453 C221.61463154 668.19500723 218.19319764 669.75050066 214.6875 671.25 C213.31490163 671.84197852 211.94252047 672.43446084 210.5703125 673.02734375 C209.47058105 673.50083252 209.47058105 673.50083252 208.34863281 673.98388672 C203.91003869 675.90420155 199.48760554 677.86135503 195.0625 679.8125 C187.9686372 682.93886429 180.87167266 686.05783683 173.76789856 689.16160583 C150.16951893 699.44421969 150.16951893 699.44421969 126.75 710.125 C117.03547221 714.65450737 107.25750843 719.02867649 97.43273926 723.31292725 C95.8471872 724.00513938 94.26273682 724.69988216 92.67956543 725.39752197 C64.51252343 737.79408489 64.51252343 737.79408489 49.625 739.875 C48.50762451 740.04358521 48.50762451 740.04358521 47.36767578 740.21557617 C19.33884881 744.18203396 -11.36793903 735.75942063 -34 719 C-57.7855892 700.54761536 -73.68250933 675.87855123 -78.56532931 645.90026498 C-79.52457312 637.29304775 -79.28723884 628.60940559 -79.2784729 619.95944214 C-79.28348024 617.71037633 -79.28935732 615.46131232 -79.29602563 613.21225083 C-79.31179159 607.04957397 -79.31525451 600.88694276 -79.31667423 594.72424817 C-79.31999463 588.753392 -79.33265596 582.78255759 -79.3450741 576.81171503 C-79.37016278 564.59355632 -79.38605043 552.37540193 -79.39665604 540.15722275 C-79.40720574 528.03706819 -79.42186457 515.91692993 -79.44193649 503.79678726 C-79.44318536 503.04121665 -79.44443423 502.28564603 -79.44572094 501.50717934 C-79.45208612 497.6687148 -79.45852316 493.83025039 -79.46498732 489.99178602 C-79.51064552 462.80003385 -79.54708202 435.60827635 -79.578125 408.41650391 C-79.60817789 382.10920404 -79.64249737 355.80191543 -79.68261719 329.49462891 C-79.68384819 328.68636513 -79.68507919 327.87810135 -79.6863475 327.04534473 C-79.6974906 319.73142837 -79.70868773 312.41751209 -79.71994839 305.10359591 C-79.74682915 287.64215448 -79.77298721 270.18071202 -79.79867554 252.7192688 C-79.79980645 251.95059418 -79.80093736 251.18191955 -79.80210253 250.38995176 C-79.84979562 217.9364753 -79.89313249 185.48299396 -79.93264764 153.02950653 C-79.9381839 148.4868734 -79.94383751 143.94424043 -79.94954109 139.40160751 C-79.95106584 138.16979145 -79.95259059 136.93797539 -79.95416154 135.66883157 C-79.95720212 133.23795461 -79.9603355 130.80707776 -79.96356581 128.37620105 C-79.97095864 122.61947819 -79.97624442 116.86277053 -79.97642732 111.10604262 C-79.97809097 101.67977151 -79.98763831 92.2546109 -80.08054108 82.82872965 C-80.1174875 78.98790484 -80.14356688 75.14704011 -80.16875283 71.30612244 C-80.18336864 69.56187608 -80.20339972 67.81766365 -80.22977372 66.07355545 C-80.53260593 45.98321698 -78.21127015 28.42417889 -64.61328125 12.609375 C-57.06001683 5.06740096 -48.28514239 -0.11535239 -38 -3 C-37.390354 -3.17362061 -36.78070801 -3.34724121 -36.15258789 -3.52612305 C-24.70884122 -6.04538269 -10.49836308 -5.07393065 0 0 Z " fill="#21A26A" transform="translate(591,796)"/>
<path d="M0 0 C0.33 0 0.66 0 1 0 C1.06848871 56.79974753 1.1321692 113.59949911 1.16937256 170.39927673 C1.16992479 171.24022893 1.17047702 172.08118112 1.17104598 172.94761672 C1.18301823 191.22474986 1.19409887 209.50188345 1.20426132 227.77901769 C1.20925057 236.74240838 1.2144368 245.70579894 1.21972656 254.66918945 C1.2202496 255.561144 1.22077263 256.45309854 1.22131152 257.37208201 C1.23835014 286.27133412 1.26839033 315.1705549 1.30518888 344.06978804 C1.3429424 373.773011 1.36754715 403.47621663 1.37565996 433.17946318 C1.37681254 437.37697592 1.37811509 441.5744886 1.37950897 445.77200127 C1.37991351 447.01117023 1.37991351 447.01117023 1.38032622 448.27537291 C1.385049 461.56161079 1.4035902 474.84779501 1.42732814 488.13401102 C1.45090971 501.49835652 1.45986376 514.86264893 1.45400551 528.22701449 C1.45096836 536.16237475 1.45902777 544.09754037 1.48319017 552.0328654 C1.50001971 557.96660706 1.49581063 563.90021525 1.48359558 569.83397215 C1.48190912 572.22857572 1.48695187 574.62319585 1.49953273 577.01776696 C1.6003701 597.40135498 -0.03324711 614.69384202 -14.6875 630.3125 C-26.09708808 641.04992202 -41.21310313 647.45814453 -57 647 C-80.88236977 644.50375231 -95.76892753 630.6313404 -110.375 612.6875 C-111.4578125 611.34365234 -111.4578125 611.34365234 -112.5625 609.97265625 C-115.43719855 606.46681395 -118.39725778 603.04332653 -121.375 599.625 C-126.86006506 593.32577046 -132.27995262 586.97604017 -137.66162109 580.58837891 C-139.91767416 577.9109106 -142.17699337 575.23620884 -144.4375 572.5625 C-145.11449951 571.76175049 -145.11449951 571.76175049 -145.80517578 570.94482422 C-149.18730228 566.94929043 -152.59008636 562.97183053 -156 559 C-161.23973352 552.89681506 -166.44335168 546.76403713 -171.63232422 540.61767578 C-173.02459417 538.97091021 -174.42005473 537.32689933 -175.81640625 535.68359375 C-180.13498801 530.59771327 -184.42475401 525.49717864 -188.625 520.3125 C-192.20222179 515.91417214 -195.94597541 511.70701146 -199.76171875 507.515625 C-202.80879057 504.09099279 -205.67745642 500.53388192 -208.5625 496.97265625 C-212.77122483 491.83990049 -217.11906527 486.82654106 -221.45166016 481.79833984 C-224.47196834 478.29036285 -227.48134467 474.7730065 -230.49267578 471.25732422 C-233.02658135 468.29986016 -235.56327675 465.344877 -238.10546875 462.39453125 C-242.60880698 457.16326589 -247.09029743 451.92510755 -251.4375 446.5625 C-256.59186792 440.21723119 -261.97362765 434.07490552 -267.34033203 427.90966797 C-273.54872623 420.76608759 -279.72823972 413.60354128 -285.6875 406.25 C-289.24267904 401.86848205 -292.96769537 397.68289319 -296.765625 393.51171875 C-299.78690037 390.11542494 -302.62575933 386.5840702 -305.484375 383.05078125 C-308.97347108 378.81943957 -312.57315788 374.68785524 -316.19775391 370.57226562 C-318.71957355 367.69566528 -321.18080005 364.8232279 -323.4453125 361.73828125 C-328.48456415 354.97412447 -332.72773792 351.93277151 -341 350 C-337.56031308 349.07135882 -334.57856917 348.77158069 -331 349 C-330.01 349.66 -329.02 350.32 -328 351 C-328 351.66 -328 352.32 -328 353 C-327.12996338 353.1343042 -326.25992676 353.2686084 -325.36352539 353.40698242 C-322.24045649 353.95760552 -319.24426677 354.66412746 -316.18359375 355.48828125 C-315.09651123 355.78033447 -314.00942871 356.0723877 -312.8894043 356.37329102 C-311.18071167 356.83819946 -311.18071167 356.83819946 -309.4375 357.3125 C-308.2616333 357.63081787 -307.0857666 357.94913574 -305.87426758 358.27709961 C-299.37098945 360.04825704 -292.90524007 361.87552284 -286.484375 363.92553711 C-282.27371253 365.22396239 -278.03744132 366.41695032 -273.796875 367.61328125 C-260.83803541 371.29354713 -247.95228481 375.21110872 -235.0625 379.125 C-215.07360142 385.20657468 -215.07360142 385.20657468 -195 391 C-187.14652777 393.20655552 -179.29535746 395.42114052 -171.44628906 397.64331055 C-169.0043334 398.33315496 -166.5616359 399.02037935 -164.11816406 399.70483398 C-150.88223372 403.41479688 -137.74034647 407.2887861 -124.7421875 411.76953125 C-123.15709381 412.31476692 -123.15709381 412.31476692 -121.53997803 412.87101746 C-113.63321734 415.6502051 -106.1634107 418.93183142 -98.83447266 422.99072266 C-96.92933691 424.03887692 -95.00450788 425.0419902 -93.07421875 426.04296875 C-80.04675243 432.9281895 -67.66439254 441.59131463 -57.5546875 452.375 C-55.83486779 454.2390637 -55.83486779 454.2390637 -52.9375 456.5 C-49.18409789 459.69438477 -46.13510805 463.20645885 -43 467 C-41.79537109 468.43085937 -41.79537109 468.43085937 -40.56640625 469.890625 C-19.9612059 494.88347614 -10.69767911 521.29068283 -1 552 C-0.67 369.84 -0.34 187.68 0 0 Z " fill="#686869" transform="translate(1535,610)"/>
<path d="M0 0 C0.77988281 0.350625 1.55976562 0.70125 2.36328125 1.0625 C16.35253703 8.0208863 26.91910735 22.05276235 36.5546875 34.01953125 C39.47003344 37.57290019 42.47799995 41.03734593 45.5 44.5 C49.32326173 48.88203766 53.09154701 53.29060094 56.75 57.8125 C59.57487839 61.30235888 62.47717579 64.68010514 65.5 68 C68.52282421 71.31989486 71.42512161 74.69764112 74.25 78.1875 C77.87263314 82.66214616 81.59482326 87.03387598 85.375 91.375 C92.91878754 100.04179316 100.38869935 108.76105993 107.625 117.6875 C111.20222179 122.08582786 114.94597541 126.29298854 118.76171875 130.484375 C121.80879057 133.90900721 124.67745642 137.46611808 127.5625 141.02734375 C131.76990214 146.15848642 136.11613733 151.17054834 140.44726562 156.19726562 C161.20010868 180.29144694 161.20010868 180.29144694 169.625 190.6875 C173.20222179 195.08582786 176.94597541 199.29298854 180.76171875 203.484375 C183.80517651 206.90494533 186.67088551 210.45721979 189.55078125 214.015625 C192.8208186 218.00016812 196.1869502 221.89802477 199.5534668 225.80102539 C202.63668534 229.38427842 205.65501054 233.00912082 208.625 236.6875 C211.6399087 240.40443618 214.7608322 243.9767821 218 247.5 C222.04971133 251.90538705 225.87423287 256.43899658 229.6328125 261.09375 C232.76654469 264.94110437 235.97690238 268.72077401 239.19506836 272.49755859 C243.44597422 277.49521344 247.2194511 282.02181987 250 288 C246.0391063 287.57862833 242.52222325 286.91380961 238.76171875 285.58984375 C234.46631091 284.12592812 230.1512809 282.96866059 225.75 281.875 C216.0050971 279.38476805 206.4337244 276.38819546 196.84057617 273.37304688 C189.60723141 271.10457635 182.36264369 268.91797677 175.0625 266.875 C168.07313221 264.91770742 161.15489085 262.79929563 154.25 260.5625 C143.30788924 257.02795507 132.26355126 253.92376977 121.17773438 250.875 C13.43185113 221.20680351 13.43185113 221.20680351 -23 186 C-23.79921875 185.24074219 -24.5984375 184.48148438 -25.421875 183.69921875 C-47.61954011 162.15217486 -60.98307854 134.88907039 -71 106 C-71.28786377 105.20215088 -71.57572754 104.40430176 -71.87231445 103.58227539 C-73.59918443 98.67872026 -74.58238206 94.10427629 -75.1875 88.9375 C-75.3102832 87.92526367 -75.3102832 87.92526367 -75.43554688 86.89257812 C-75.63205643 85.26270478 -75.81729165 83.63147809 -76 82 C-76.66 82 -77.32 82 -78 82 C-78.02495201 76.7896356 -78.04297787 71.57930695 -78.05493164 66.36889648 C-78.05992164 64.60098666 -78.06671601 62.83308089 -78.07543945 61.06518555 C-78.16763889 41.88227889 -77.77192912 27.9132142 -64.61328125 12.609375 C-57.06001683 5.06740096 -48.28514239 -0.11535239 -38 -3 C-37.390354 -3.17362061 -36.78070801 -3.34724121 -36.15258789 -3.52612305 C-24.70884122 -6.04538269 -10.49836308 -5.07393065 0 0 Z " fill="#046437" transform="translate(591,796)"/>
<path d="M0 0 C3.81628832 1.54572776 5.97025743 3.88771245 8.6875 6.9375 C9.33996704 7.66731079 9.33996704 7.66731079 10.00561523 8.41186523 C13.72987291 12.6117038 17.26640686 16.95770517 20.79296875 21.32421875 C23.63130869 24.76539195 26.62346055 28.04908946 29.625 31.34765625 C33.7140809 35.91424495 37.63752057 40.62008243 41.57958984 45.31347656 C43.00219842 47.00261029 44.4315196 48.6858079 45.86328125 50.3671875 C50.74003165 56.09768372 55.54203943 61.86765404 60.20703125 67.7734375 C61.91966279 69.90023483 63.69318744 71.95312143 65.5 74 C68 77 68 77 68 79 C68.66 79 69.32 79 70 79 C71.37212301 80.53195272 72.6715446 82.12921081 73.9375 83.75 C77.33875591 88.00977227 80.84225216 92.07998083 84.5625 96.0625 C88.54157545 100.34128913 92.282698 104.73821095 95.87890625 109.34375 C97.52126585 111.40048025 99.18915015 113.40965015 100.90234375 115.40625 C101.65547852 116.28422241 101.65547852 116.28422241 102.42382812 117.17993164 C103.41493721 118.33073718 104.40960343 119.47849103 105.40820312 120.62280273 C107.52294186 123.08182758 108.96311312 124.88933935 110 128 C107.39453125 128.42578125 107.39453125 128.42578125 104 128 C101.51237087 126.05124105 99.64728049 123.6526494 97.6875 121.1875 C97.11845947 120.50115479 96.54941895 119.81480957 95.96313477 119.10766602 C94.29170933 117.08500755 92.64389835 115.0450509 91 113 C89.47929847 111.14572523 87.95848247 109.29154433 86.4375 107.4375 C85.73109375 106.56609375 85.0246875 105.6946875 84.296875 104.796875 C80.13340668 99.72707344 75.83473326 94.77243195 71.55273438 89.80273438 C50.79989132 65.70855306 50.79989132 65.70855306 42.375 55.3125 C38.79660939 50.91273503 35.05169182 46.70418568 31.234375 42.51171875 C28.21671157 39.1194852 25.38080792 35.59297236 22.52734375 32.0625 C19.52133146 28.41997506 16.42158016 24.86699073 13.3125 21.3125 C8.98064655 16.35433196 4.8304669 11.36265366 1 6 C1.66 5.67 2.32 5.34 3 5 C2.2575 4.319375 2.2575 4.319375 1.5 3.625 C0 2 0 2 0 0 Z " fill="#757072" transform="translate(1276,1042)"/>
<path d="M0 0 C1.20712073 3.83713965 1.24022065 7.70201529 1.3515625 11.6875 C1.37471527 12.42701904 1.39786804 13.16653809 1.42172241 13.9284668 C1.46923 15.48837829 1.51447952 17.04835998 1.55761719 18.60839844 C1.62476965 20.99182414 1.70256838 23.37474282 1.78125 25.7578125 C1.82616592 27.27602272 1.87045772 28.79425156 1.9140625 30.3125 C1.93796051 31.02301514 1.96185852 31.73353027 1.98648071 32.46557617 C2.1160749 37.59363751 2.1160749 37.59363751 1.5057373 39.73034668 C0.75970766 43.07838655 0.8612293 46.41359724 0.87060547 49.82617188 C0.86885315 50.61037003 0.86710083 51.39456818 0.86529541 52.20252991 C0.86089897 54.79129254 0.86380713 57.37998669 0.8671875 59.96875 C0.86651383 61.76949069 0.86554327 63.5702313 0.86428833 65.37097168 C0.86281435 69.14364488 0.86495631 72.9162944 0.86962891 76.68896484 C0.87532601 81.52448156 0.87204541 86.35994278 0.86605644 91.19545746 C0.86244277 94.91347675 0.86359314 98.63148288 0.86618423 102.34950256 C0.86685127 104.13249213 0.86603288 105.9154829 0.86370468 107.69847107 C0.86116496 110.19028894 0.86503743 112.68201694 0.87060547 115.17382812 C0.86858124 115.91057266 0.86655701 116.6473172 0.86447144 117.40638733 C0.87842025 120.77639636 1.11380469 123.75298946 2 127 C1.505 127.495 1.505 127.495 1 128 C0.83946185 129.87321948 0.83946185 129.87321948 0.875 132 C0.87113281 133.0828125 0.87113281 133.0828125 0.8671875 134.1875 C0.80304724 136.02089415 0.80304724 136.02089415 2 137 C2.09909302 139.33160055 2.12970504 141.66629942 2.125 144 C2.12757813 145.27875 2.13015625 146.5575 2.1328125 147.875 C2 151 2 151 1 152 C0.83333333 155.5 0.83333333 155.5 1 159 C1.33 159.33 1.66 159.66 2 160 C2.125 163.5 2.125 163.5 2 167 C1.67 167.33 1.34 167.66 1 168 C0.88976841 170.66772035 0.8450342 173.31010804 0.84178162 175.97877502 C0.83437465 177.24799967 0.83437465 177.24799967 0.82681805 178.54286522 C0.81136415 181.40040089 0.8030612 184.25791397 0.79467773 187.11547852 C0.7851054 189.155011 0.77509571 191.19454148 0.76467896 193.23406982 C0.73755392 198.78960574 0.71658563 204.34515023 0.69667697 209.90071607 C0.67486411 215.69969078 0.64745251 221.49863889 0.62062073 227.29759216 C0.57063007 238.28711898 0.52571497 249.27666052 0.48259836 260.26621622 C0.43328033 272.77387875 0.37834212 285.28151458 0.32291877 297.78915131 C0.20900093 323.52607599 0.10218335 349.26302625 0 375 C0.66 375 1.32 375 2 375 C2.02685095 377.47923801 2.04676547 379.9581884 2.0625 382.4375 C2.07087891 383.14455078 2.07925781 383.85160156 2.08789062 384.58007812 C2.09653588 386.38693559 2.05220011 388.19387603 2 390 C1.67 390.33 1.34 390.66 1 391 C0.83970312 393.95529504 0.74042672 396.88982457 0.68359375 399.84765625 C0.66281265 400.7340831 0.64203156 401.62050995 0.62062073 402.53379822 C0.555026 405.376617 0.49619448 408.21953117 0.4375 411.0625 C0.3943242 412.98503606 0.35071022 414.90756234 0.30664062 416.83007812 C0.19933457 421.55328668 0.09809549 426.27659153 0 431 C0.66 431 1.32 431 2 431 C2.02685095 433.47923801 2.04676547 435.9581884 2.0625 438.4375 C2.07087891 439.14455078 2.07925781 439.85160156 2.08789062 440.58007812 C2.09653588 442.38693559 2.05220011 444.19387603 2 446 C1.67 446.33 1.34 446.66 1 447 C0.84344973 448.48638992 0.74933057 449.97949127 0.68359375 451.47265625 C0.64169922 452.37177734 0.59980469 453.27089844 0.55664062 454.19726562 C0.51732422 455.14279297 0.47800781 456.08832031 0.4375 457.0625 C0.37272461 458.4865918 0.37272461 458.4865918 0.30664062 459.93945312 C0.20020724 462.29281353 0.09818992 464.64628354 0 467 C-0.33 467 -0.66 467 -1 467 C-1.0228637 407.65137692 -1.04049888 348.30275392 -1.05106533 288.95412738 C-1.05231272 281.95550223 -1.05360927 274.95687709 -1.05493164 267.95825195 C-1.0550624 267.26178602 -1.05519316 266.56532008 -1.05532788 265.84774912 C-1.05959304 243.25289436 -1.06710719 220.6580421 -1.07629722 198.06318886 C-1.08598692 174.19660783 -1.0919936 150.33002856 -1.09408849 126.4634456 C-1.09546407 112.15744096 -1.09981649 97.85144347 -1.10791647 83.54544102 C-1.1131819 73.74975277 -1.11480476 63.95406824 -1.11350138 54.15837867 C-1.11285768 48.49763002 -1.11387908 42.83689391 -1.11920547 37.17614746 C-1.1240379 32.00292283 -1.12433969 26.82971928 -1.12089889 21.65649372 C-1.12047305 19.77627259 -1.12177009 17.8960502 -1.12488318 16.0158316 C-1.12884458 13.47744207 -1.12676501 10.93913063 -1.12304783 8.40074253 C-1.12567484 7.65574457 -1.12830186 6.91074661 -1.13100848 6.14317295 C-1.1141458 1.1141458 -1.1141458 1.1141458 0 0 Z " fill="#19895D" transform="translate(514,937)"/>
<path d="M0 0 C3.36980877 1.43570219 5.30464636 3.17498834 7.6875 5.9375 C8.38359375 6.741875 9.0796875 7.54625 9.796875 8.375 C12.80934641 11.96432764 15.76026295 15.60200824 18.7109375 19.2421875 C20.93011689 21.91580635 23.22104636 24.49575185 25.5625 27.0625 C37.33990518 40.01971554 37.33990518 40.01971554 39 45 C39.99 45.495 39.99 45.495 41 46 C39.35 46.66 37.7 47.32 36 48 C4.42592593 11.63888889 4.42592593 11.63888889 0 5 C0.66 4.67 1.32 4.34 2 4 C1.34 2.68 0.68 1.36 0 0 Z " fill="#747071" transform="translate(1390,1176)"/>
<path d="M0 0 C3.1878318 0.68432062 5.9367074 1.79950261 8.88671875 3.1796875 C9.82580078 3.61410156 10.76488281 4.04851563 11.73242188 4.49609375 C13.68344161 5.40648366 15.63397288 6.31792123 17.58398438 7.23046875 C23.31084643 9.87723935 28.97432336 12.12589666 35 14 C35 14.66 35 15.32 35 16 C36.7325 16.1546875 36.7325 16.1546875 38.5 16.3125 C43.01171519 16.86035113 46.80605749 18.2774879 51 20 C51 20.66 51 21.32 51 22 C45.22109921 21.38802525 40.09144421 19.8794353 34.625 17.9375 C33.75593018 17.63094482 32.88686035 17.32438965 31.99145508 17.00854492 C20.84663303 12.98123686 10.23054055 7.96891822 0 2 C0 1.34 0 0.68 0 0 Z " fill="#0C4F2B" transform="translate(603,1007)"/>
<path d="M0 0 C5.21717649 4.13026472 9.23768573 8.55967108 13.30078125 13.828125 C14.96548962 16.04628882 14.96548962 16.04628882 17 18 C16.625 21.125 16.625 21.125 16 24 C8.74961553 16.82729822 1.67041965 9.50562948 -4 1 C-2.68 1.33 -1.36 1.66 0 2 C0 1.34 0 0.68 0 0 Z " fill="#787377" transform="translate(1258,1020)"/>
<path d="M0 0 C0.66 0 1.32 0 2 0 C2.66 3.63 3.32 7.26 4 11 C3.67 11 3.34 11 3 11 C2.85432779 14.84675366 2.71192602 18.69361436 2.57302856 22.5406189 C2.52449225 23.88440351 2.47556482 25.22817406 2.42623901 26.57192993 C2.11074315 35.24311813 1.90768425 43.86803085 2.16015625 52.54296875 C2 55 2 55 0 57 C0 38.19 0 19.38 0 0 Z " fill="#1F915F" transform="translate(513,878)"/>
<path d="M0 0 C12.66970387 1.92710706 12.66970387 1.92710706 18 4 C18 4.66 18 5.32 18 6 C19.45599609 5.92265625 19.45599609 5.92265625 20.94140625 5.84375 C25.53853852 5.84375 29.587167 7.12071704 33.9375 8.5 C34.71673828 8.73847656 35.49597656 8.97695312 36.29882812 9.22265625 C38.20190376 9.80642178 40.10134922 10.40199976 42 11 C42 11.33 42 11.66 42 12 C34.21266808 12.5085648 27.8668735 11.12514057 20.5 8.6875 C18.55211595 8.06630396 16.60419954 7.44520938 14.65625 6.82421875 C13.72039063 6.5204834 12.78453125 6.21674805 11.8203125 5.90380859 C7.56543136 4.54027241 3.28492449 3.26541376 -1 2 C-0.67 1.34 -0.34 0.68 0 0 Z " fill="#0F5A32" transform="translate(680,1035)"/>
<path d="M0 0 C2.88582666 0.44283025 5.40892821 0.99955541 8.1875 1.8125 C8.93708984 2.01681641 9.68667969 2.22113281 10.45898438 2.43164062 C12.31036695 2.93870719 14.1558205 3.46733135 16 4 C16 4.99 16 5.98 16 7 C16.66 7 17.32 7 18 7 C18.33 6.34 18.66 5.68 19 5 C20.32 5.66 21.64 6.32 23 7 C23 7.66 23 8.32 23 9 C26.465 8.505 26.465 8.505 30 8 C30.495 9.98 30.495 9.98 31 12 C23.29447373 10.629793 15.86903481 8.61501526 8.375 6.375 C7.27542969 6.05015625 6.17585938 5.7253125 5.04296875 5.390625 C2.36080009 4.597636 -0.32012475 3.80069834 -3 3 C-1.73706055 1.46362305 -1.73706055 1.46362305 0 0 Z " fill="#4D4A46" transform="translate(1112,932)"/>
<path d="M0 0 C3.79588866 0.54226981 5.47211993 2.20127563 8 5 C8.66 4.67 9.32 4.34 10 4 C10 4.66 10 5.32 10 6 C10.99 6 11.98 6 13 6 C14.37482707 7.63260714 15.70647667 9.30225062 17 11 C17.99 11.66 18.98 12.32 20 13 C20.6875 16.125 20.6875 16.125 21 19 C16.43478774 17.55392908 13.36827872 14.96932191 9.9375 11.75 C9.1630957 11.05197266 9.1630957 11.05197266 8.37304688 10.33984375 C4.95799637 7.18146583 2.44218774 3.95903816 0 0 Z " fill="#7A7578" transform="translate(1431,1229)"/>
<path d="M0 0 C0.33 0 0.66 0 1 0 C1.05063836 6.92338952 1.08570749 13.84673141 1.10986328 20.77026367 C1.11993155 23.12640162 1.13358706 25.48252704 1.15087891 27.83862305 C1.17509076 31.22187386 1.18647478 34.60495972 1.1953125 37.98828125 C1.20563507 39.04461258 1.21595764 40.10094391 1.22659302 41.18928528 C1.22674408 42.17007553 1.22689514 43.15086578 1.22705078 44.16137695 C1.231492 45.02519485 1.23593323 45.88901276 1.24050903 46.77900696 C1 49 1 49 -1 52 C-2.50156874 48.99686252 -2.09281204 46.20932478 -2.0625 42.875 C-2.05347656 41.59367187 -2.04445313 40.31234375 -2.03515625 38.9921875 C-2.02355469 38.00476562 -2.01195312 37.01734375 -2 36 C-1.67 36 -1.34 36 -1 36 C-0.67 24.12 -0.34 12.24 0 0 Z " fill="#5F5954" transform="translate(1535,1126)"/>
<path d="M0 0 C9.32185303 1.37168408 18.25187847 4.56936411 27 8 C26.67 8.66 26.34 9.32 26 10 C20.26770659 9.01658172 14.65694991 7.71803843 9.0625 6.125 C7.98097656 5.81820313 6.89945313 5.51140625 5.78515625 5.1953125 C2.75908482 3.89660583 1.67262107 2.78575914 0 0 Z " fill="#105730" transform="translate(743,1053)"/>
<path d="M0 0 C0.33 0 0.66 0 1 0 C1 20.79 1 41.58 1 63 C0.67 63 0.34 63 0 63 C0 52.44 0 41.88 0 31 C-0.66 31 -1.32 31 -2 31 C-2 30.01 -2 29.02 -2 28 C-1.34 28 -0.68 28 0 28 C0 18.76 0 9.52 0 0 Z " fill="#191210" transform="translate(1534,848)"/>
<path d="M0 0 C12.63888889 10.20833333 12.63888889 10.20833333 15 18 C13.35 18.33 11.7 18.66 10 19 C9.938125 17.1128125 9.938125 17.1128125 9.875 15.1875 C9.68027738 12.97525425 9.68027738 12.97525425 9 11 C6.13343033 9.31668061 6.13343033 9.31668061 3 8 C0 3.1 0 3.1 0 0 Z " fill="#54A582" transform="translate(1207,1196)"/>
<path d="M0 0 C2.31 0 4.62 0 7 0 C7 0.66 7 1.32 7 2 C9.97 2.495 9.97 2.495 13 3 C13.33 4.32 13.66 5.64 14 7 C8.0870696 6.35729017 2.65755469 4.80996216 -3 3 C-2.01 2.67 -1.02 2.34 0 2 C0 1.34 0 0.68 0 0 Z " fill="#4B4845" transform="translate(945,883)"/>
<path d="M0 0 C0.66 0.33 1.32 0.66 2 1 C-0.475 5.455 -0.475 5.455 -3 10 C-3.66 10 -4.32 10 -5 10 C-5 10.66 -5 11.32 -5 12 C-5.66 12 -6.32 12 -7 12 C-7.268125 12.61875 -7.53625 13.2375 -7.8125 13.875 C-9 16 -9 16 -12 18 C-10.5703053 13.91196673 -8.57586645 10.78329064 -6 7.3125 C-5.29875 6.35988281 -4.5975 5.40726563 -3.875 4.42578125 C-2 2 -2 2 0 0 Z " fill="#477D67" transform="translate(529,806)"/>
<path d="M0 0 C0.7115625 0.03996094 1.423125 0.07992188 2.15625 0.12109375 C5.85404589 0.37635205 8.83909679 0.74150942 12 2.75 C3.60106788 3.85198755 -3.71877177 3.52664648 -12 1.75 C-8.17637104 -0.83891544 -4.39479462 -0.34234813 0 0 Z " fill="#9E9A97" transform="translate(1478,1253.25)"/>
<path d="M0 0 C4.29 0.33 8.58 0.66 13 1 C13 1.66 13 2.32 13 3 C15.97 3.495 15.97 3.495 19 4 C19 4.66 19 5.32 19 6 C12.80688638 5.42656355 6.79033135 4.35902388 1 2 C0.67 1.34 0.34 0.68 0 0 Z " fill="#0F562F" transform="translate(723,1048)"/>
<path d="M0 0 C3 2.5625 3 2.5625 5 5 C-0.9129304 4.35729017 -6.34244531 2.80996216 -12 1 C-7.93517976 -1.3266343 -4.44408595 -1.40802723 0 0 Z M2 0 C2.99 0.495 2.99 0.495 4 1 C3.01 1.495 3.01 1.495 2 2 C2 1.34 2 0.68 2 0 Z " fill="#595551" transform="translate(1104,929)"/>
<path d="M0 0 C0.77988281 0.31324219 1.55976562 0.62648438 2.36328125 0.94921875 C3.15089844 1.25472656 3.93851563 1.56023438 4.75 1.875 C5.38550781 2.12636719 6.02101563 2.37773438 6.67578125 2.63671875 C7.00578125 2.63671875 7.33578125 2.63671875 7.67578125 2.63671875 C8.69597698 3.61610665 9.6972793 4.61567324 10.67578125 5.63671875 C6.70201296 7.20065231 3.86200222 5.99817167 -0.07421875 4.69921875 C-1.2446875 4.31894531 -2.41515625 3.93867187 -3.62109375 3.546875 C-4.513125 3.24652344 -5.40515625 2.94617188 -6.32421875 2.63671875 C-2.97707583 -0.46532446 -2.97707583 -0.46532446 0 0 Z " fill="#595652" transform="translate(870.32421875,860.36328125)"/>
<path d="M0 0 C4.2215914 1.32104221 5.93842126 2.7528092 8.25 6.5 C9.00023437 7.69109375 9.00023437 7.69109375 9.765625 8.90625 C10.55515183 10.2454474 11.3047587 11.60951741 12 13 C7.99467488 12.47678185 6.35207218 10.60292705 3.75 7.625 C3.04359375 6.83351563 2.3371875 6.04203125 1.609375 5.2265625 C0 3 0 3 0 0 Z " fill="#6A6568" transform="translate(1314,1089)"/>
<path d="M0 0 C4.2742558 1.5830577 6.26531794 4.50568404 9 8 C8.34 8.66 7.68 9.32 7 10 C6.67 10.99 6.34 11.98 6 13 C4.02 10.36 2.04 7.72 0 5 C0.66 4.67 1.32 4.34 2 4 C1.34 2.68 0.68 1.36 0 0 Z " fill="#757274" transform="translate(1390,1176)"/>
<path d="M0 0 C4.59306496 1.4859916 7.43569245 3.85014682 11 7 C10.34 7.66 9.68 8.32 9 9 C8.01 9 7.02 9 6 9 C4 6 4 6 4 3 C2.02 3 0.04 3 -2 3 C-1.34 2.01 -0.68 1.02 0 0 Z " fill="#39745A" transform="translate(595,799)"/>
<path d="M0 0 C0.99 0.33 1.98 0.66 3 1 C3.05449838 2.72880982 3.09301688 4.45812712 3.125 6.1875 C3.14820313 7.15042969 3.17140625 8.11335938 3.1953125 9.10546875 C2.9913544 12.12812778 2.26874632 14.26769985 1 17 C0.67 17 0.34 17 0 17 C0 11.39 0 5.78 0 0 Z " fill="#19915F" transform="translate(513,1408)"/>
<path d="M0 0 C5.75 1.625 5.75 1.625 8 5 C8 5.99 8 6.98 8 8 C5.2980567 7.63487253 3.41609148 7.30130763 1.1875 5.6875 C0 4 0 4 0 0 Z " fill="#737174" transform="translate(1452,1244)"/>
<path d="M0 0 C3.45195767 1.4258086 5.1014256 3.09746334 7.25 6.125 C8.03117187 7.21167969 8.03117187 7.21167969 8.828125 8.3203125 C9.40820312 9.15175781 9.40820312 9.15175781 10 10 C7.525 9.01 7.525 9.01 5 8 C4.67 8.66 4.34 9.32 4 10 C3.01 8.68 2.02 7.36 1 6 C1.66 5.67 2.32 5.34 3 5 C2.2575 4.319375 2.2575 4.319375 1.5 3.625 C0 2 0 2 0 0 Z " fill="#7A7679" transform="translate(1276,1042)"/>
<path d="M0 0 C6.29299361 -0.41953291 12.09333017 0.77222487 18 3 C18.33 3.66 18.66 4.32 19 5 C12.31006781 4.46048934 6.36539272 3.11293829 0 1 C0 0.67 0 0.34 0 0 Z " fill="#7AA189" transform="translate(585,1529)"/>
<path d="M0 0 C0.99 0.495 0.99 0.495 2 1 C2.6328125 3.06640625 2.6328125 3.06640625 3.125 5.5625 C3.29257812 6.38878906 3.46015625 7.21507812 3.6328125 8.06640625 C3.75398437 8.70449219 3.87515625 9.34257813 4 10 C3.34 10 2.68 10 2 10 C1.67 11.65 1.34 13.3 1 15 C0.67 15 0.34 15 0 15 C0 10.05 0 5.1 0 0 Z " fill="#2CA163" transform="translate(515,888)"/>
<path d="M0 0 C0.99 0.33 1.98 0.66 3 1 C3 6.94 3 12.88 3 19 C2.67 19 2.34 19 2 19 C2 15.04 2 11.08 2 7 C1.34 7 0.68 7 0 7 C0 4.69 0 2.38 0 0 Z " fill="#171312" transform="translate(1532,760)"/>
<path d="M0 0 C0 0.99 0 1.98 0 3 C0.66 3.33 1.32 3.66 2 4 C-5.42857143 3 -5.42857143 3 -9 2 C-9 1.34 -9 0.68 -9 0 C-5.52176885 -1.15941038 -3.54104422 -0.70820884 0 0 Z " fill="#4F4C4A" transform="translate(1019,904)"/>
<path d="M0 0 C3.36179774 1.44077046 5.59156268 3.24750021 8 6 C8 6.66 8 7.32 8 8 C5.525 7.01 5.525 7.01 3 6 C2.67 6.66 2.34 7.32 2 8 C1.34 7.01 0.68 6.02 0 5 C0.66 5 1.32 5 2 5 C1.34 3.35 0.68 1.7 0 0 Z " fill="#7B7678" transform="translate(1412,1202)"/>
<path d="M0 0 C0.33 0.66 0.66 1.32 1 2 C1.99 2 2.98 2 4 2 C5.37482707 3.63260714 6.70647667 5.30225062 8 7 C8.99 7.66 9.98 8.32 11 9 C11 9.66 11 10.32 11 11 C8.08728356 9.65319085 5.70671723 8.12551255 3.25 6.0625 C2.63640625 5.55847656 2.0228125 5.05445313 1.390625 4.53515625 C0 3 0 3 0 0 Z " fill="#737072" transform="translate(1440,1233)"/>
<path d="M0 0 C0.66 0.33 1.32 0.66 2 1 C-1.66666667 4.66666667 -5.33333333 8.33333333 -9 12 C-9.66 11.67 -10.32 11.34 -11 11 C-9.92173635 9.72486237 -8.83714481 8.45507431 -7.75 7.1875 C-7.14671875 6.47980469 -6.5434375 5.77210938 -5.921875 5.04296875 C-4.07629602 3.08110329 -2.20054668 1.54330375 0 0 Z " fill="#6B6B6C" transform="translate(841,761)"/>
<path d="M0 0 C3.1875 0.3125 3.1875 0.3125 6 1 C6.33 2.32 6.66 3.64 7 5 C3.7 4.34 0.4 3.68 -3 3 C-2.01 2.01 -1.02 1.02 0 0 Z " fill="#57544E" transform="translate(1112,932)"/>
<path d="M0 0 C0.66 0.33 1.32 0.66 2 1 C0.59447701 2.03612271 -0.82491694 3.05344925 -2.25 4.0625 C-3.43335938 4.91521484 -3.43335938 4.91521484 -4.640625 5.78515625 C-7 7 -7 7 -9.296875 6.68359375 C-9.85890625 6.45800781 -10.4209375 6.23242188 -11 6 C-9.73168307 5.18357746 -8.46024069 4.37200895 -7.1875 3.5625 C-6.47980469 3.11003906 -5.77210938 2.65757812 -5.04296875 2.19140625 C-3 1 -3 1 0 0 Z " fill="#56816F" transform="translate(547,795)"/>
<path d="M0 0 C0.33 0.66 0.66 1.32 1 2 C1.99 2.33 2.98 2.66 4 3 C4.33 3.99 4.66 4.98 5 6 C-1.625 5.25 -1.625 5.25 -5 3 C-4.01 3 -3.02 3 -2 3 C-2 2.34 -2 1.68 -2 1 C-1.34 0.67 -0.68 0.34 0 0 Z " fill="#504D4B" transform="translate(1063,916)"/>
<path d="M0 0 C0 0.66 0 1.32 0 2 C-5.01907969 6.08529742 -5.01907969 6.08529742 -8.875 5.75 C-9.57625 5.5025 -10.2775 5.255 -11 5 C-8.12934225 2.12934225 -4.13678472 0 0 0 Z " fill="#545457" transform="translate(1358,530)"/>
<path d="M0 0 C0.33 0 0.66 0 1 0 C1 4.62 1 9.24 1 14 C0.01 14.33 -0.98 14.66 -2 15 C-2 13.02 -2 11.04 -2 9 C-1.34 9 -0.68 9 0 9 C0 6.03 0 3.06 0 0 Z " fill="#1A1513" transform="translate(1534,680)"/>
<path d="M0 0 C1.65 0.33 3.3 0.66 5 1 C5.33 1.99 5.66 2.98 6 4 C6.99 4.33 7.98 4.66 9 5 C4.94393835 4.53199289 1.53411321 4.12046792 -2 2 C-1.34 2 -0.68 2 0 2 C0 1.34 0 0.68 0 0 Z " fill="#565450" transform="translate(1145,942)"/>
<path d="M0 0 C0.66 0.33 1.32 0.66 2 1 C-1.90102388 3.78644563 -5.38486888 5.68139111 -10 7 C-10.33 6.34 -10.66 5.68 -11 5 C-9.21289414 4.13633178 -7.4201535 3.28431406 -5.625 2.4375 C-4.62726562 1.96183594 -3.62953125 1.48617187 -2.6015625 0.99609375 C-1.74304688 0.66738281 -0.88453125 0.33867188 0 0 Z " fill="#5C5C60" transform="translate(936,717)"/>
<path d="M0 0 C1.953125 0.61848958 3.90625 1.23697917 5.859375 1.85546875 C5.859375 2.51546875 5.859375 3.17546875 5.859375 3.85546875 C1.899375 3.52546875 -2.060625 3.19546875 -6.140625 2.85546875 C-2.140625 -0.14453125 -2.140625 -0.14453125 0 0 Z " fill="#1F955D" transform="translate(610.140625,1531.14453125)"/>
<path d="M0 0 C0.99 0.33 1.98 0.66 3 1 C4.1875 3.5625 4.1875 3.5625 5 6 C3.35 6.33 1.7 6.66 0 7 C0 4.69 0 2.38 0 0 Z " fill="#47A87D" transform="translate(1217,1208)"/>
<path d="M0 0 C4.571279 0.54855348 8.67435795 1.41744803 13 3 C13 3.33 13 3.66 13 4 C8.17639811 4.19294408 4.50353262 3.75747614 0 2 C0 1.34 0 0.68 0 0 Z " fill="#80B29D" transform="translate(848,1087)"/>
<path d="M0 0 C1.60332791 -0.08121924 3.20784026 -0.13929134 4.8125 -0.1875 C6.15248047 -0.23970703 6.15248047 -0.23970703 7.51953125 -0.29296875 C10.41647515 0.04918998 11.22555028 0.75393573 13 3 C8.17639811 3.19294408 4.50353262 2.75747614 0 1 C0 0.67 0 0.34 0 0 Z " fill="#595554" transform="translate(1194,959)"/>
<path d="M0 0 C1.65 0.33 3.3 0.66 5 1 C5 1.66 5 2.32 5 3 C5.66 3.66 6.32 4.32 7 5 C0.375 4.25 0.375 4.25 -3 2 C-2.01 2 -1.02 2 0 2 C0 1.34 0 0.68 0 0 Z " fill="#504E4C" transform="translate(1041,911)"/>
<path d="M0 0 C2.9375 0.8125 2.9375 0.8125 6 2 C6.33 2.99 6.66 3.98 7 5 C0.375 4.25 0.375 4.25 -3 2 C-2.01 2 -1.02 2 0 2 C0 1.34 0 0.68 0 0 Z " fill="#514E4C" transform="translate(925,877)"/>
<path d="M0 0 C2.9375 0.8125 2.9375 0.8125 6 2 C6.33 2.99 6.66 3.98 7 5 C3.7 4.34 0.4 3.68 -3 3 C-2.01 2.67 -1.02 2.34 0 2 C0 1.34 0 0.68 0 0 Z " fill="#55524E" transform="translate(891,867)"/>
<path d="M0 0 C4.1424367 1.38081223 5.32203099 3.59825558 8 7 C7.67 7.66 7.34 8.32 7 9 C1.21538462 4.56923077 1.21538462 4.56923077 0.125 1.6875 C0.08375 1.130625 0.0425 0.57375 0 0 Z " fill="#686264" transform="translate(1419,1213)"/>
<path d="M0 0 C1.9375 0.375 1.9375 0.375 4 1 C4.33 1.66 4.66 2.32 5 3 C4.01 3.99 3.02 4.98 2 6 C0.68 4.68 -0.64 3.36 -2 2 C-1.34 1.67 -0.68 1.34 0 1 C0 0.67 0 0.34 0 0 Z " fill="#7E797C" transform="translate(1301,1072)"/>
<path d="M0 0 C1 2 2 4 3 6 C1.625 7.5 1.625 7.5 0 9 C-0.66 9 -1.32 9 -2 9 C-1.51421457 5.87709365 -1.0013988 3.00419641 0 0 Z " fill="#3F765A" transform="translate(516,824)"/>
<path d="M0 0 C2.375 0.1875 2.375 0.1875 5 1 C6.375 3.4375 6.375 3.4375 7 6 C6.67 6.66 6.34 7.32 6 8 C4.02 5.36 2.04 2.72 0 0 Z " fill="#837E81" transform="translate(1390,1181)"/>
<path d="M0 0 C1.32 1.32 2.64 2.64 4 4 C2.02 4.99 2.02 4.99 0 6 C-1.32 4.35 -2.64 2.7 -4 1 C-2.68 1.33 -1.36 1.66 0 2 C0 1.34 0 0.68 0 0 Z " fill="#7F7B7F" transform="translate(1258,1020)"/>
<path d="M0 0 C0.99 0.33 1.98 0.66 3 1 C3 1.99 3 2.98 3 4 C3.66 4.33 4.32 4.66 5 5 C1.7 4.34 -1.6 3.68 -5 3 C-3.68 2.34 -2.36 1.68 -1 1 C-0.67 0.67 -0.34 0.34 0 0 Z " fill="#676460" transform="translate(974,891)"/>
<path d="M0 0 C5.53846154 0.61538462 5.53846154 0.61538462 7.875 2.5625 C8.431875 3.2740625 8.431875 3.2740625 9 4 C8.01 4.495 8.01 4.495 7 5 C1.27272727 2.54545455 1.27272727 2.54545455 0 0 Z " fill="#05592A" transform="translate(582,795)"/>
<path d="M0 0 C2.5 2.3125 2.5 2.3125 5 5 C5 5.99 5 6.98 5 8 C2 7 2 7 0 4 C0 2.68 0 1.36 0 0 Z " fill="#545454" transform="translate(1510,552)"/>
<path d="M0 0 C1.65 0 3.3 0 5 0 C5.99 2.31 6.98 4.62 8 7 C4.2047869 5.50902342 2.38957269 3.24299151 0 0 Z " fill="#7EA894" transform="translate(541,1500)"/>
<path d="M0 0 C2.64 0 5.28 0 8 0 C5.3144406 2.6855594 2.62378672 3.06049974 -1 4 C-0.67 2.68 -0.34 1.36 0 0 Z " fill="#7CBC9A" transform="translate(901,1420)"/>
<path d="M0 0 C1.1725131 0.95117134 2.33787015 1.91117009 3.5 2.875 C4.47453125 3.67550781 4.47453125 3.67550781 5.46875 4.4921875 C5.9740625 4.98976563 6.479375 5.48734375 7 6 C7 6.66 7 7.32 7 8 C5.68 8 4.36 8 3 8 C1.92474806 5.34771188 0.90543849 2.71631546 0 0 Z " fill="#76AA96" transform="translate(838,1079)"/>
<path d="M0 0 C2.64 0.33 5.28 0.66 8 1 C8 1.99 8 2.98 8 4 C4.31245243 3.50168276 2.39509338 2.89932357 0 0 Z " fill="#797678" transform="translate(1203,962)"/>
<path d="M0 0 C2.86724686 0.57344937 3.8614515 0.8614515 6 3 C6.99 3.66 7.98 4.32 9 5 C2.375 4.25 2.375 4.25 -1 2 C-0.67 1.34 -0.34 0.68 0 0 Z " fill="#5C5957" transform="translate(1029,908)"/>
<path d="M0 0 C1.98 0 3.96 0 6 0 C6 0.66 6 1.32 6 2 C6.66 2 7.32 2 8 2 C8 2.66 8 3.32 8 4 C4.31245243 3.50168276 2.39509338 2.89932357 0 0 Z " fill="#868384" transform="translate(1452,1248)"/>
<path d="M0 0 C0.99 0.33 1.98 0.66 3 1 C3 1.66 3 2.32 3 3 C3.66 3.33 4.32 3.66 5 4 C3.35 4.66 1.7 5.32 0 6 C-0.66 5.01 -1.32 4.02 -2 3 C-1.34 2.67 -0.68 2.34 0 2 C0 1.34 0 0.68 0 0 Z " fill="#7C7778" transform="translate(1426,1218)"/>
<path d="M0 0 C2.64 0.66 5.28 1.32 8 2 C8 2.66 8 3.32 8 4 C3.545 3.01 3.545 3.01 -1 2 C-0.67 1.34 -0.34 0.68 0 0 Z " fill="#161310" transform="translate(1033,909)"/>
<path d="M0 0 C1.32 0.33 2.64 0.66 4 1 C4.33 2.32 4.66 3.64 5 5 C4.01 5 3.02 5 2 5 C1.34 4.34 0.68 3.68 0 3 C0 2.01 0 1.02 0 0 Z " fill="#676265" transform="translate(1348,1129)"/>
<path d="M0 0 C4.95 0.99 4.95 0.99 10 2 C10 2.33 10 2.66 10 3 C2.25 3.125 2.25 3.125 0 2 C0 1.34 0 0.68 0 0 Z " fill="#76AF97" transform="translate(964,1121)"/>
<path d="M0 0 C0 0.66 0 1.32 0 2 C-0.66 2 -1.32 2 -2 2 C-2 2.66 -2 3.32 -2 4 C-3.98 4.33 -5.96 4.66 -8 5 C-3.16129032 0 -3.16129032 0 0 0 Z " fill="#575758" transform="translate(851,756)"/>
<path d="M0 0 C0.66 0.33 1.32 0.66 2 1 C0.02 2.32 -1.96 3.64 -4 5 C-4.99 4.34 -5.98 3.68 -7 3 C-4.69631264 1.93347808 -2.35981813 0.93578995 0 0 Z " fill="#5E5F61" transform="translate(1179,609)"/>
</svg>
